<?xml version="1.0" encoding="UTF-8" standalone="no"?>
<svg xmlns:dc="http://purl.org/dc/elements/1.1/" xmlns:cc="http://creativecommons.org/ns#" xmlns:rdf="http://www.w3.org/1999/02/22-rdf-syntax-ns#" xmlns:svg="http://www.w3.org/2000/svg" xmlns="http://www.w3.org/2000/svg" version="1.1" id="svg2" viewBox="0 0 196.23736 89.730208" height="25.323858mm" width="55.382542mm">
  <defs id="defs4" />
  <metadata id="metadata7">
    <rdf:RDF>
      <cc:Work rdf:about="">
        <dc:format>image/svg+xml</dc:format>
        <dc:type rdf:resource="http://purl.org/dc/dcmitype/StillImage" />
        <dc:title></dc:title>
      </cc:Work>
    </rdf:RDF>
  </metadata>
  <g transform="translate(-89.942128,-234.819)" id="layer1">
    <g style="fill:#ffffff" id="g4199">
      <text xml:space="preserve" style="font-style:normal;font-variant:normal;font-weight:normal;font-stretch:normal;line-height:0%;font-family:'Courier New';-inkscape-font-specification:'Courier New';letter-spacing:0px;word-spacing:0px;fill:#ffffff;fill-opacity:1;stroke:none;stroke-width:1px;stroke-linecap:butt;stroke-linejoin:miter;stroke-opacity:1" x="73.866837" y="304.5726" id="text4168"><tspan id="tspan4170" x="73.866837" y="304.5726" style="font-style:normal;font-variant:normal;font-weight:normal;font-stretch:normal;font-size:96.26373291px;line-height:1.25;font-family:'Courier New';-inkscape-font-specification:'Courier New';fill:#ffffff">(</tspan></text>
      <text id="text4172" y="304.5726" x="244.58115" style="font-style:normal;font-variant:normal;font-weight:normal;font-stretch:normal;line-height:0%;font-family:'Courier New';-inkscape-font-specification:'Courier New';letter-spacing:0px;word-spacing:0px;fill:#ffffff;fill-opacity:1;stroke:none;stroke-width:1px;stroke-linecap:butt;stroke-linejoin:miter;stroke-opacity:1" xml:space="preserve"><tspan style="font-style:normal;font-variant:normal;font-weight:normal;font-stretch:normal;font-size:96.26373291px;line-height:1.25;font-family:'Courier New';-inkscape-font-specification:'Courier New';fill:#ffffff" y="304.5726" x="244.58115" id="tspan4174">)</tspan></text>
      <g style="font-style:normal;font-variant:normal;font-weight:normal;font-stretch:normal;font-size:59.90513611px;line-height:125%;font-family:Telegrafico;-inkscape-font-specification:Telegrafico;letter-spacing:0px;word-spacing:0px;fill:#ffffff;fill-opacity:1;stroke:none;stroke-width:1px;stroke-linecap:butt;stroke-linejoin:miter;stroke-opacity:1" id="text4176">
        <path d="m 134.7187,265.19816 h 5.2993 v 26.63474 h 15.99006 v 5.34538 H 134.7187 Z" style="fill:#ffffff" id="path4181" />
        <path d="m 165.25628,265.19816 h 5.2993 v 31.98012 h -5.2993 z" style="fill:#ffffff" id="path4183" />
        <path d="m 185.06385,270.54354 v 10.64468 h 10.69076 q 2.16581,0 3.73256,-1.56675 1.56674,-1.56675 1.56674,-3.73255 0,-2.21188 -1.56674,-3.77863 -1.56675,-1.56675 -3.73256,-1.56675 z m 0,15.99006 v 10.64468 h -5.2993 v -31.98012 h 15.99006 q 4.37769,0 7.51119,3.1335 3.1335,3.1335 3.1335,7.55726 0,4.37768 -3.1335,7.55726 -3.1335,3.08742 -7.51119,3.08742 z" style="fill:#ffffff" id="path4185" />
        <path d="m 224.87557,283.86091 q -3.87079,0 -6.58957,-2.71877 -2.71877,-2.71877 -2.71877,-6.63565 0,-3.82471 2.71877,-6.54348 2.67269,-2.76485 6.58957,-2.76485 h 17.32641 v 5.34538 h -17.32641 q -0.82946,0 -1.56675,0.32256 -0.7373,0.27649 -1.29027,0.82946 -0.55297,0.55297 -0.87553,1.29026 -0.27649,0.7373 -0.27649,1.52067 0,1.65892 1.15202,2.85702 1.15203,1.1981 2.85702,1.1981 h 7.97199 q 3.87079,0 6.58956,2.71877 2.76486,2.71877 2.76486,6.58957 0,3.82471 -2.76486,6.58956 -2.71877,2.71877 -6.58956,2.71877 h -17.28033 v -5.34538 h 17.28033 q 0.82946,0 1.56675,-0.27648 0.73729,-0.32257 1.29026,-0.82946 0.55297,-0.55297 0.82946,-1.29026 0.32257,-0.7373 0.32257,-1.56675 0,-1.61283 -1.19811,-2.81094 -1.15202,-1.1981 -2.81093,-1.1981 z" style="fill:#ffffff" id="path4187" />
      </g>
    </g>
  </g>
</svg>
