<?xml version="1.0" encoding="UTF-8" standalone="no"?>
<svg xmlns:dc="http://purl.org/dc/elements/1.1/" xmlns:cc="http://creativecommons.org/ns#" xmlns:rdf="http://www.w3.org/1999/02/22-rdf-syntax-ns#" xmlns:svg="http://www.w3.org/2000/svg" xmlns="http://www.w3.org/2000/svg" width="74.076729mm" height="38.746498mm" viewBox="0 0 262.47661 137.29074" id="svg2" version="1.1">
  <defs id="defs4" />
  <metadata id="metadata7">
    <rdf:RDF>
      <cc:Work rdf:about="">
        <dc:format>image/svg+xml</dc:format>
        <dc:type rdf:resource="http://purl.org/dc/dcmitype/StillImage" />
        <dc:title></dc:title>
      </cc:Work>
    </rdf:RDF>
  </metadata>
  <path id="path837" style="font-style:normal;font-variant:normal;font-weight:normal;font-stretch:normal;font-size:11.7062px;line-height:1.25;font-family:Telegrafico;-inkscape-font-specification:Telegrafico;letter-spacing:0px;word-spacing:0px;fill:#000000;fill-opacity:1;stroke:none;stroke-width:1.69623" d="M 54.955078 33.652344 C 51.862462 33.652344 49.2844 35.291659 47.222656 38.568359 C 45.160897 41.808243 44.075276 46.132845 43.964844 51.544922 L 45.953125 51.544922 C 46.13721 48.19459 47.002523 45.72961 48.548828 44.146484 C 50.131954 42.526542 51.973706 41.714844 54.072266 41.714844 C 56.686263 41.714844 58.875368 43.298592 60.642578 46.464844 C 62.409785 49.631091 63.920103 54.509393 65.171875 61.099609 L 41.535156 112.01758 L 51.972656 112.01758 L 68.429688 74.685547 L 73.179688 96.113281 C 74.873262 103.73437 76.786495 108.4281 78.921875 110.19531 C 81.057251 111.9257 83.286008 112.79102 85.605469 112.79102 C 88.440367 112.79102 90.796169 111.46527 92.673828 108.81445 C 94.588307 106.16364 95.544922 101.93035 95.544922 96.113281 L 93.556641 96.113281 C 93.004387 101.93035 90.666457 104.83789 86.542969 104.83789 C 84.11306 104.83789 82.015257 103.62327 80.248047 101.19336 C 78.517657 98.72663 76.86047 93.8662 75.277344 86.613281 L 71.357422 69.107422 C 68.59616 56.663328 66.551971 48.470657 65.226562 44.53125 C 63.937974 40.555031 62.391918 37.758613 60.587891 36.138672 C 58.820684 34.481913 56.94319 33.652344 54.955078 33.652344 z M 28.519531 46.572266 C 24.765593 51.584174 21.990458 56.616129 20.193359 61.667969 C 18.655844 66.020943 17.886719 70.573846 17.886719 75.326172 C 17.886719 80.717463 18.915978 85.929064 20.972656 90.960938 C 23.029334 95.992812 25.544335 100.38473 28.519531 104.13867 L 32.384766 104.13867 C 26.414408 94.554152 23.427734 84.959962 23.427734 75.355469 C 23.427734 71.581565 23.858186 67.827719 24.716797 64.09375 C 25.41567 61.098584 26.373765 58.224301 27.591797 55.46875 C 28.37054 53.69162 29.968667 50.72556 32.384766 46.572266 L 28.519531 46.572266 z M 247.5918 46.572266 C 250.02789 50.765494 251.63535 53.761495 252.41406 55.558594 C 253.63211 58.314145 254.57891 61.188428 255.25781 64.183594 C 256.11643 67.877625 256.54688 71.60153 256.54688 75.355469 C 256.54688 84.959962 253.56217 94.554152 247.5918 104.13867 L 251.45508 104.13867 C 254.4103 100.38473 256.91597 95.992812 258.97266 90.960938 C 261.04929 85.929064 262.08789 80.717463 262.08789 75.326172 C 262.08789 70.573846 261.31877 66.020943 259.78125 61.667969 C 257.98418 56.616129 255.20903 51.584174 251.45508 46.572266 L 247.5918 46.572266 z M 117.96875 59.396484 L 117.96875 95.617188 L 142.08203 95.617188 L 142.08203 89.5625 L 123.9707 89.5625 L 123.9707 59.396484 L 117.96875 59.396484 z M 152.51953 59.396484 L 152.51953 95.617188 L 158.52148 95.617188 L 158.52148 59.396484 L 152.51953 59.396484 z M 168.95898 59.396484 L 168.95898 95.617188 L 174.96289 95.617188 L 174.96289 83.560547 L 187.07031 83.560547 C 190.37578 83.560547 193.21211 82.395676 195.57812 80.064453 C 197.94415 77.66364 199.12695 74.809374 199.12695 71.503906 C 199.12695 68.163643 197.94415 65.31133 195.57812 62.945312 C 193.21211 60.57929 190.37578 59.396484 187.07031 59.396484 L 168.95898 59.396484 z M 220.10742 59.396484 C 217.1499 59.396484 214.66261 60.43968 212.64453 62.527344 C 210.59167 64.580215 209.56445 67.051517 209.56445 69.939453 C 209.56445 72.896975 210.59167 75.40221 212.64453 77.455078 C 214.69741 79.50795 217.1847 80.533203 220.10742 80.533203 L 229.13672 80.533203 C 230.38932 80.533203 231.45045 80.985971 232.32031 81.890625 C 233.22497 82.79528 233.67773 83.856415 233.67773 85.074219 C 233.67773 85.700515 233.55605 86.292896 233.3125 86.849609 C 233.10373 87.406318 232.79058 87.893015 232.37305 88.310547 C 231.95552 88.693299 231.46882 89.006452 230.91211 89.25 C 230.35539 89.458772 229.76302 89.5625 229.13672 89.5625 L 209.56445 89.5625 L 209.56445 95.617188 L 229.13672 95.617188 C 232.05945 95.617187 234.54674 94.589978 236.59961 92.537109 C 238.68727 90.449442 239.73242 87.962151 239.73242 85.074219 C 239.73242 82.151488 238.68727 79.664196 236.59961 77.611328 C 234.54674 75.558456 232.05945 74.53125 229.13672 74.53125 L 220.10742 74.53125 C 218.82003 74.53125 217.74095 74.080436 216.87109 73.175781 C 216.00123 72.271127 215.56641 71.192049 215.56641 69.939453 C 215.56641 69.347945 215.67209 68.773507 215.88086 68.216797 C 216.12442 67.660088 216.45356 67.173391 216.87109 66.755859 C 217.28862 66.338331 217.77728 66.025178 218.33398 65.816406 C 218.8907 65.572859 219.48113 65.451172 220.10742 65.451172 L 239.73242 65.451172 L 239.73242 59.396484 L 220.10742 59.396484 z M 174.96289 65.451172 L 187.07031 65.451172 C 188.70565 65.451172 190.11582 66.041596 191.29883 67.224609 C 192.48184 68.407618 193.07227 69.833775 193.07227 71.503906 C 193.07227 73.139243 192.48184 74.549413 191.29883 75.732422 C 190.11582 76.915431 188.70565 77.507812 187.07031 77.507812 L 174.96289 77.507812 L 174.96289 65.451172 z " transform="scale(0.93750004)" />
</svg>
