<?xml version="1.0" encoding="UTF-8" standalone="no"?>
<!-- Created with Inkscape (http://www.inkscape.org/) -->

<svg xmlns:dc="http://purl.org/dc/elements/1.1/" xmlns:cc="http://creativecommons.org/ns#" xmlns:rdf="http://www.w3.org/1999/02/22-rdf-syntax-ns#" xmlns:svg="http://www.w3.org/2000/svg" xmlns="http://www.w3.org/2000/svg" xmlns:sodipodi="http://sodipodi.sourceforge.net/DTD/sodipodi-0.dtd" xmlns:inkscape="http://www.inkscape.org/namespaces/inkscape" width="48.630398mm" height="20.097246mm" viewBox="0 0 172.31244 71.210716" id="svg2" version="1.1" inkscape:version="0.91 r13725" sodipodi:docname="logo.svg">
  <defs id="defs4" />
  <sodipodi:namedview id="base" pagecolor="#ffffff" bordercolor="#666666" borderopacity="1.0" inkscape:pageopacity="0.0" inkscape:pageshadow="2" inkscape:zoom="1.4" inkscape:cx="38.856766" inkscape:cy="-74.703386" inkscape:document-units="px" inkscape:current-layer="layer1" showgrid="false" inkscape:window-width="1366" inkscape:window-height="706" inkscape:window-x="-8" inkscape:window-y="-8" inkscape:window-maximized="1" fit-margin-top="0" fit-margin-left="0" fit-margin-right="0" fit-margin-bottom="0" />
  <metadata id="metadata7">
    <rdf:RDF>
      <cc:Work rdf:about="">
        <dc:format>image/svg+xml</dc:format>
        <dc:type rdf:resource="http://purl.org/dc/dcmitype/StillImage" />
        <dc:title></dc:title>
      </cc:Work>
    </rdf:RDF>
  </metadata>
  <g inkscape:label="Layer 1" inkscape:groupmode="layer" id="layer1" transform="translate(-102.30412,-245.58286)">
    <g id="g4199" style="fill:#ffffff">
      <text sodipodi:linespacing="125%" id="text4168" y="304.5726" x="73.866837" style="font-style:normal;font-variant:normal;font-weight:normal;font-stretch:normal;font-size:96.26373291px;line-height:125%;font-family:'Courier New';-inkscape-font-specification:'Courier New';letter-spacing:0px;word-spacing:0px;fill:#ffffff;fill-opacity:1;stroke:none;stroke-width:1px;stroke-linecap:butt;stroke-linejoin:miter;stroke-opacity:1" xml:space="preserve"><tspan style="font-style:normal;font-variant:normal;font-weight:normal;font-stretch:normal;font-family:'Courier New';-inkscape-font-specification:'Courier New';fill:#ffffff" y="304.5726" x="73.866837" id="tspan4170" sodipodi:role="line">(</tspan></text>
      <text xml:space="preserve" style="font-style:normal;font-variant:normal;font-weight:normal;font-stretch:normal;font-size:96.26373291px;line-height:125%;font-family:'Courier New';-inkscape-font-specification:'Courier New';letter-spacing:0px;word-spacing:0px;fill:#ffffff;fill-opacity:1;stroke:none;stroke-width:1px;stroke-linecap:butt;stroke-linejoin:miter;stroke-opacity:1" x="244.58115" y="304.5726" id="text4172" sodipodi:linespacing="125%"><tspan sodipodi:role="line" id="tspan4174" x="244.58115" y="304.5726" style="font-style:normal;font-variant:normal;font-weight:normal;font-stretch:normal;font-family:'Courier New';-inkscape-font-specification:'Courier New';fill:#ffffff">)</tspan></text>
      <g id="text4176" style="font-style:normal;font-variant:normal;font-weight:normal;font-stretch:normal;font-size:59.90513611px;line-height:125%;font-family:Telegrafico;-inkscape-font-specification:Telegrafico;letter-spacing:0px;word-spacing:0px;fill:#ffffff;fill-opacity:1;stroke:none;stroke-width:1px;stroke-linecap:butt;stroke-linejoin:miter;stroke-opacity:1">
        <path id="path4181" style="fill:#ffffff" d="m 134.7187,265.19816 5.2993,0 0,26.63474 15.99006,0 0,5.34538 -21.28936,0 0,-31.98012 z" />
        <path id="path4183" style="fill:#ffffff" d="m 165.25628,265.19816 5.2993,0 0,31.98012 -5.2993,0 0,-31.98012 z" />
        <path id="path4185" style="fill:#ffffff" d="m 185.06385,270.54354 0,10.64468 10.69076,0 q 2.16581,0 3.73256,-1.56675 1.56674,-1.56675 1.56674,-3.73255 0,-2.21188 -1.56674,-3.77863 -1.56675,-1.56675 -3.73256,-1.56675 l -10.69076,0 z m 0,15.99006 0,10.64468 -5.2993,0 0,-31.98012 15.99006,0 q 4.37769,0 7.51119,3.1335 3.1335,3.1335 3.1335,7.55726 0,4.37768 -3.1335,7.55726 -3.1335,3.08742 -7.51119,3.08742 l -10.69076,0 z" />
        <path id="path4187" style="fill:#ffffff" d="m 224.87557,283.86091 q -3.87079,0 -6.58957,-2.71877 -2.71877,-2.71877 -2.71877,-6.63565 0,-3.82471 2.71877,-6.54348 2.67269,-2.76485 6.58957,-2.76485 l 17.32641,0 0,5.34538 -17.32641,0 q -0.82946,0 -1.56675,0.32256 -0.7373,0.27649 -1.29027,0.82946 -0.55297,0.55297 -0.87553,1.29026 -0.27649,0.7373 -0.27649,1.52067 0,1.65892 1.15202,2.85702 1.15203,1.1981 2.85702,1.1981 l 7.97199,0 q 3.87079,0 6.58956,2.71877 2.76486,2.71877 2.76486,6.58957 0,3.82471 -2.76486,6.58956 -2.71877,2.71877 -6.58956,2.71877 l -17.28033,0 0,-5.34538 17.28033,0 q 0.82946,0 1.56675,-0.27648 0.73729,-0.32257 1.29026,-0.82946 0.55297,-0.55297 0.82946,-1.29026 0.32257,-0.7373 0.32257,-1.56675 0,-1.61283 -1.19811,-2.81094 -1.15202,-1.1981 -2.81093,-1.1981 l -7.97199,0 z" />
      </g>
    </g>
  </g>
</svg>
