<?xml version="1.0" encoding="UTF-8" standalone="no"?>
<svg xmlns:dc="http://purl.org/dc/elements/1.1/" xmlns:cc="http://creativecommons.org/ns#" xmlns:rdf="http://www.w3.org/1999/02/22-rdf-syntax-ns#" xmlns:svg="http://www.w3.org/2000/svg" xmlns="http://www.w3.org/2000/svg" width="71.966667mm" height="13.758334mm" viewBox="0 0 71.966666 13.758334" version="1.1" id="svg1044">
  <defs id="defs1038">
    <clipPath clipPathUnits="userSpaceOnUse" id="clipPath985">
      <circle style="fill:#e79e2d;stroke-width:0.109785" cx="67.372993" cy="104.01463" r="25.999996" id="circle987" />
    </clipPath>
    <clipPath clipPathUnits="userSpaceOnUse" id="clipPath1000">
      <circle style="fill:#e79e2d;stroke-width:0.0290473" cx="2.5449569" cy="33.524246" r="6.8791656" id="circle1002" />
    </clipPath>
  </defs>
  <metadata id="metadata1041">
    <rdf:RDF>
      <cc:Work rdf:about="">
        <dc:format>image/svg+xml</dc:format>
        <dc:type rdf:resource="http://purl.org/dc/dcmitype/StillImage" />
        <dc:title></dc:title>
      </cc:Work>
    </rdf:RDF>
  </metadata>
  <g transform="matrix(0.02904698,0,0,0.02904698,30.691666,0)" id="g10762">
    <circle style="fill:#e79e2d" cx="236.82899" cy="236.82899" r="236.82899" id="circle10718" />
    <g id="g10730">
      <path style="fill:#ffffff" d="m 205.801,122.042 c -22.778,0 -45.56,0 -68.334,0 -6.081,0 -11.301,5 -11.301,11.14 0.004,22.774 0.007,45.552 0.007,68.326 0.004,14.487 22.445,14.614 22.445,0.161 -0.004,-13.777 -0.004,-27.55 -0.004,-41.326 16.136,16.136 32.277,32.276 48.413,48.409 10.224,10.224 26.035,-5.703 15.785,-15.953 -16.11,-16.11 -32.217,-32.213 -48.323,-48.319 13.717,0 27.437,0 41.154,0 14.485,0.007 14.612,-22.438 0.158,-22.438 z" id="path10720" />
      <path style="fill:#ffffff" d="m 323.064,261.753 c 0.004,13.777 0.004,27.546 0.004,41.323 -16.136,-16.136 -32.276,-32.276 -48.413,-48.413 -10.224,-10.224 -26.035,5.699 -15.785,15.953 16.11,16.11 32.213,32.213 48.323,48.323 -13.721,0 -27.437,0.004 -41.154,0.004 -14.487,0.004 -14.614,22.445 -0.161,22.445 22.778,-0.004 45.56,-0.007 68.334,-0.007 6.081,-0.004 11.301,-5 11.301,-11.14 -0.004,-22.774 -0.007,-45.548 -0.007,-68.323 0,-14.491 -22.442,-14.618 -22.442,-0.165 z" id="path10722" />
      <path style="fill:#ffffff" d="m 265.882,144.494 c 13.777,-0.004 27.546,-0.004 41.323,-0.004 -16.136,16.133 -32.276,32.273 -48.413,48.405 -10.224,10.224 5.699,26.035 15.953,15.785 16.11,-16.106 32.213,-32.209 48.323,-48.316 0,13.713 0.004,27.43 0.004,41.147 0.004,14.487 22.445,14.614 22.445,0.161 -0.004,-22.774 -0.007,-45.552 -0.007,-68.326 0,-6.081 -5,-11.301 -11.14,-11.301 -22.774,0.004 -45.548,0.007 -68.323,0.007 -14.491,10e-4 -14.619,22.442 -0.165,22.442 z" id="path10724" />
      <path style="fill:#ffffff" d="m 205.801,318.932 c -13.777,0.004 -27.55,0.004 -41.323,0.004 16.133,-16.133 32.273,-32.273 48.405,-48.405 10.224,-10.224 -5.699,-26.035 -15.953,-15.785 -16.11,16.106 -32.213,32.213 -48.319,48.319 0,-13.717 0,-27.434 0,-41.151 0,-14.487 -22.445,-14.614 -22.445,-0.161 0,22.774 0,45.552 0,68.326 0,6.081 5,11.301 11.14,11.301 22.778,-0.004 45.552,-0.007 68.326,-0.007 14.496,0 14.623,-22.441 0.169,-22.441 z" id="path10726" />
      <path style="fill:#ffffff" d="m 391.645,98.322 c -7.82,-21.869 -24.812,-24.756 -44.92,-24.756 -54.142,0 -108.284,0 -162.43,0 -20.725,0 -41.45,0 -62.178,0 -20.62,0 -36.648,7.958 -40.545,29.042 -0.314,1.043 -0.542,2.158 -0.542,3.429 -0.112,0.976 -0.093,1.87 0,2.715 0,40.792 0,81.583 0,122.378 0,41.356 -4.173,85.102 0.565,126.249 2.693,23.384 24.39,27.748 43.54,27.748 23.141,0 46.281,0 69.422,0 52.313,0 104.63,0 156.944,0 20.183,0 41.087,-8.635 41.087,-32.549 0,-13.997 0,-27.995 0,-41.992 0,-56.887 0,-113.77 0,-170.657 0.007,-11.96 3.245,-29.891 -0.943,-41.607 z m -21.496,44.142 c 0,28.309 0,56.621 0,84.93 0,41.693 0,83.393 0,125.09 0,16.092 -39.236,10.194 -46.461,10.194 -28.309,0 -56.621,0 -84.93,0 -41.693,0 -83.393,0 -125.09,0 -16.088,0 -10.19,-39.24 -10.19,-46.461 0,-28.309 0,-56.621 0,-84.93 0,-41.693 0,-83.393 0,-125.09 1.885,-16.364 37.531,-10.187 46.457,-10.187 28.309,0 56.621,0 84.93,0 41.693,0 83.393,0 125.09,0 16.096,10e-4 10.194,39.229 10.194,46.454 z" id="path10728" />
    </g>
    <g id="g10732" />
    <g id="g10734" />
    <g id="g10736" />
    <g id="g10738" />
    <g id="g10740" />
    <g id="g10742" />
    <g id="g10744" />
    <g id="g10746" />
    <g id="g10748" />
    <g id="g10750" />
    <g id="g10752" />
    <g id="g10754" />
    <g id="g10756" />
    <g id="g10758" />
    <g id="g10760" />
  </g>
  <g transform="matrix(0.02904722,0,0,0.02904722,16.933334,0)" id="g10804">
    <circle style="fill:#e79e2d" cx="236.827" cy="236.827" r="236.827" id="circle10764" />
    <g id="g10772">
      <path style="fill:#ffffff" d="m 138.89939,273.41273 c 13.773,0 27.542,0 41.315,0 -16.136,16.133 -32.273,32.269 -48.409,48.401 -10.224,10.224 5.699,26.035 15.953,15.785 16.11,-16.11 32.22,-32.216 48.33,-48.326 0,13.72 0,27.441 -0.004,41.165 0,14.487 22.441,14.614 22.441,0.161 0.004,-22.774 0.004,-45.552 0.007,-68.326 0,-6.081 -4.996,-11.301 -11.14,-11.301 -22.778,0 -45.555,0 -68.333,0 -14.486,-0.003 -14.613,22.441 -0.16,22.441 z" id="path10766" />
      <path style="fill:#ffffff" d="m 268.19973,212.43027 c 22.778,0 45.555,0.004 68.333,0.007 14.491,0 14.618,-22.441 0.161,-22.445 -13.773,0 -27.542,-0.004 -41.315,-0.004 16.136,-16.133 32.273,-32.273 48.405,-48.405 10.224,-10.224 -5.703,-26.035 -15.953,-15.785 -16.11,16.114 -32.22,32.22 -48.33,48.334 0,-13.724 0,-27.445 0.004,-41.165 0,-14.487 -22.441,-14.614 -22.441,-0.161 -0.004,22.774 -0.004,45.548 -0.007,68.322 -0.001,6.082 4.999,11.298 11.143,11.302 z" id="path10768" />
      <path style="fill:#ffffff" d="m 392.592,113.672 c 0,-1.283 -0.228,-2.412 -0.546,-3.47 -4.039,-21.981 -20.814,-29.169 -41.906,-29.169 -22.516,0 -45.036,0 -67.555,0 -52.975,0 -105.95,0 -158.921,0 -22.101,0 -39.774,7.752 -42.62,32.478 -1.466,12.703 0,26.443 0,39.209 0,56.935 0,113.87 0,170.809 0,13.661 -1.006,27.721 0.561,41.319 2.696,23.384 24.401,27.74 43.544,27.74 53.584,0 107.169,0 160.749,0 21.873,0 43.742,0 65.611,0 20.182,0 41.079,-8.627 41.079,-32.542 0,-42.919 0,-85.834 0,-128.75 0,-38.308 0,-76.62 0,-114.928 0.097,-0.838 0.116,-1.728 0.004,-2.696 z m -32.467,256.471 c -12.703,1.466 -26.446,0 -39.209,0 -28.626,0 -57.253,0 -85.879,0 -28.309,0 -56.621,0 -84.929,0 -8.683,0 -44.763,6.099 -46.621,-10.026 -1.462,-12.703 0,-26.443 0,-39.209 0,-28.623 0,-57.253 0,-85.879 0,-28.309 0,-56.621 0,-84.929 0,-8.691 -6.099,-44.763 10.033,-46.621 12.703,-1.466 26.446,0 39.209,0 28.626,0 57.253,0 85.879,0 28.309,0 56.621,0 84.929,0 8.695,0 44.755,-6.103 46.614,10.033 0,41.696 0,83.392 0,125.089 0,28.309 0,56.621 0,84.929 -0.001,8.686 6.095,44.758 -10.026,46.613 z" id="path10770" />
    </g>
    <g id="g10774" />
    <g id="g10776" />
    <g id="g10778" />
    <g id="g10780" />
    <g id="g10782" />
    <g id="g10784" />
    <g id="g10786" />
    <g id="g10788" />
    <g id="g10790" />
    <g id="g10792" />
    <g id="g10794" />
    <g id="g10796" />
    <g id="g10798" />
    <g id="g10800" />
    <g id="g10802" />
  </g>
  <rect style="fill:none;fill-rule:evenodd;stroke-width:0.132951;stop-color:#000000" id="rect877" width="8.4666672" height="8.4666672" x="-4.3359375e-07" y="2.9284666e-07" />
  <path id="path10235" d="m 2.648295,7.681508 c 3.20346,0 4.949795,-2.658428 4.949795,-4.949799 0,-0.07786 0,-0.155722 0,-0.222458 C 7.942912,2.264536 8.232104,1.953093 8.465691,1.60827 8.154248,1.741749 7.820554,1.841857 7.464603,1.88635 7.820554,1.675013 8.098633,1.330198 8.232104,0.91864 7.898419,1.118855 7.520232,1.263455 7.130924,1.34132 6.808344,0.996504 6.363422,0.785161 5.86287,0.785161 c -0.967704,0 -1.74632,0.778623 -1.74632,1.746333 0,0.133479 0.01108,0.266958 0.04448,0.40043 C 2.715019,2.854064 1.435859,2.164429 0.568256,1.107733 0.423656,1.363562 0.334663,1.663892 0.334663,1.975335 c 0,0.600652 0.311458,1.134561 0.77863,1.446012 -0.289208,-0.01116 -0.556166,-0.08899 -0.789752,-0.222465 0,0.01109 0,0.01109 0,0.02224 0,0.845359 0.600652,1.546118 1.401518,1.70184 -0.1446,0.04449 -0.300322,0.06673 -0.456051,0.06673 -0.111229,0 -0.222457,-0.01109 -0.322572,-0.0334 C 1.1689,5.64593 1.814045,6.146467 2.570419,6.168717 1.969767,6.63589 1.224522,6.913969 0.412534,6.913969 c -0.144607,0 -0.278086,-0.01109 -0.411558,-0.02224 0.756373,0.500537 1.668469,0.789738 2.647308,0.789738" class="st0" style="fill:#ffffff;fill-opacity:1;stroke-width:0.111231" />
  <rect style="fill:none;fill-rule:evenodd;stroke-width:0.132951;stop-color:#000000" id="rect879" width="8.4666672" height="8.4666672" x="8.4666672" y="2.9284666e-07" />
  <g style="fill:#ffffff" id="g10229" transform="matrix(0.00914366,0,0,0.00914366,-47.764153,-0.332726)">
    <path id="path10218" d="m 6612.6861,89.372109 c -232.2529,0 -420.3673,188.114381 -420.3673,420.367331 0,186.01254 120.3301,343.12483 287.4262,398.8235 21.0183,3.67821 28.9002,-8.93281 28.9002,-19.96745 0,-9.98373 -0.5255,-43.08765 -0.5255,-78.29342 -105.6172,19.44199 -132.9411,-25.74749 -141.3485,-49.39316 -4.7291,-12.08556 -25.222,-49.39316 -43.0876,-59.37688 -14.7129,-7.88189 -35.7312,-27.32388 -0.5255,-27.84934 33.104,-0.52546 56.7496,30.47663 64.6315,43.08765 37.8331,63.58056 98.2609,45.71495 122.432,34.68031 3.6782,-27.32388 14.7128,-45.71495 26.7984,-56.22413 -93.5317,-10.50918 -191.2671,-46.76587 -191.2671,-207.55637 0,-45.71495 16.2892,-83.548 43.0876,-112.97372 -4.2037,-10.50918 -18.9165,-53.59683 4.2037,-111.39734 0,0 35.2058,-11.03464 115.601,43.08765 33.6294,-9.45826 69.3606,-14.1874 105.0918,-14.1874 35.7313,0 71.4625,4.72914 105.0919,14.1874 80.3952,-54.64775 115.601,-43.08765 115.601,-43.08765 23.1202,57.80051 8.4073,100.88816 4.2037,111.39734 26.7984,29.42572 43.0876,66.73332 43.0876,112.97372 0,161.31596 -98.2609,197.04719 -191.7926,207.55637 15.2383,13.13648 28.3748,38.35852 28.3748,77.76795 0,56.22413 -0.5254,101.41362 -0.5254,115.60102 0,11.03464 7.8818,24.17112 28.9002,19.96745 166.0451,-55.69867 286.3752,-213.33642 286.3752,-398.8235 0,-232.25295 -188.1143,-420.367331 -420.3673,-420.367331 z" style="clip-rule:evenodd;fill:#ffffff;fill-rule:evenodd;stroke-width:52.5459" />
  </g>
  <g id="g1017" transform="translate(62.54254,-26.645079)">
    <circle style="fill:#e79e2d;stroke-width:0.0290472" cx="2.5449569" cy="33.524246" r="6.8791656" id="circle989" />
    <g id="g1011">
      <path id="path903" style="fill:#ffffff;stroke-width:0.0862" d="m 2.5463709,29.103855 c -2.433393,0 -4.417752,1.987053 -4.417752,4.420447 0,2.433394 1.984359,4.417753 4.417752,4.417753 0.996903,0 1.917883,-0.333564 2.658733,-0.894326 l 1.686289,2.014927 c 0.099947,0.125898 0.2520419,0.208941 0.4119756,0.225095 0.159934,0.01616 0.3255713,-0.03486 0.448678,-0.138222 0.1231067,-0.103367 0.202058,-0.257719 0.2138166,-0.418037 0.011758,-0.160316 -0.043806,-0.324415 -0.1505134,-0.444637 L 6.0617173,36.19381 c 0.5662111,-0.742867 0.9024069,-1.667268 0.9024069,-2.669508 0,-2.433394 -1.9843583,-4.420447 -4.4177533,-4.420447 z m 0,1.204107 c 1.781191,0 3.2109525,1.435149 3.2109525,3.21634 0,1.78119 -1.4297615,3.210952 -3.2109525,3.210952 -1.78119,0 -3.210952,-1.429762 -3.210952,-3.210952 0,-1.781191 1.429762,-3.21634 3.210952,-3.21634 z" clip-path="url(#clipPath1000)" />
      <path style="fill:#ffffff;stroke-width:0.0861999" d="m 0.2242899,32.861582 v 1.325326 h 4.641334 v -1.325326 z" id="path995" />
    </g>
  </g>
  <g id="g924" transform="matrix(0.02904722,0,0,0.02904722,-8.1436723,11.396803)" />
  <g id="g926" transform="matrix(0.02904722,0,0,0.02904722,-8.1436723,11.396803)" />
  <g id="g928" transform="matrix(0.02904722,0,0,0.02904722,-8.1436723,11.396803)" />
  <g id="g930" transform="matrix(0.02904722,0,0,0.02904722,-8.1436723,11.396803)" />
  <g id="g932" transform="matrix(0.02904722,0,0,0.02904722,-8.1436723,11.396803)" />
  <g id="g934" transform="matrix(0.02904722,0,0,0.02904722,-8.1436723,11.396803)" />
  <g id="g936" transform="matrix(0.02904722,0,0,0.02904722,-8.1436723,11.396803)" />
  <g id="g938" transform="matrix(0.02904722,0,0,0.02904722,-8.1436723,11.396803)" />
  <g id="g940" transform="matrix(0.02904722,0,0,0.02904722,-8.1436723,11.396803)" />
  <g id="g942" transform="matrix(0.02904722,0,0,0.02904722,-8.1436723,11.396803)" />
  <g id="g944" transform="matrix(0.02904722,0,0,0.02904722,-8.1436723,11.396803)" />
  <g id="g946" transform="matrix(0.02904722,0,0,0.02904722,-8.1436723,11.396803)" />
  <g id="g948" transform="matrix(0.02904722,0,0,0.02904722,-8.1436723,11.396803)" />
  <g id="g950" transform="matrix(0.02904722,0,0,0.02904722,-8.1436723,11.396803)" />
  <g id="g952" transform="matrix(0.02904722,0,0,0.02904722,-8.1436723,11.396803)" />
  <g id="g1007" transform="translate(33.503394,-20.641369)">
    <circle style="fill:#e79e2d;stroke-width:0.0290472" cx="17.825771" cy="27.520536" r="6.8791656" id="circle914" />
    <path id="path888" style="fill:#ffffff;stroke-width:0.325673" d="m 67.378906,87.318359 c -9.193633,0 -16.691406,7.507539 -16.691406,16.701171 0,9.19364 7.497773,16.69141 16.691406,16.69141 3.766413,0 7.245906,-1.26029 10.044922,-3.37891 l 6.371094,7.61133 a 2.279942,2.279942 0 1 0 3.490234,-2.92969 l -6.625,-7.9082 c 2.139209,-2.80663 3.408203,-6.29936 3.408203,-10.08594 0,-9.193632 -7.495816,-16.701171 -16.689453,-16.701171 z m 0,4.548829 c 6.729536,0 12.13086,5.422807 12.13086,12.152342 0,6.72954 -5.401324,12.13086 -12.13086,12.13086 -6.729536,0 -12.132812,-5.40132 -12.132812,-12.13086 0,-6.729535 5.403276,-12.152342 12.132812,-12.152342 z" transform="scale(0.26458333)" clip-path="url(#clipPath985)" />
    <path style="fill:#ffffff;stroke-width:0.0861677" d="m 17.164704,25.200738 v 1.65873 h -1.65873 v 1.324829 h 1.65873 v 1.656037 h 1.324829 v -1.656037 h 1.656037 v -1.324829 h -1.656037 v -1.65873 z" id="path980" />
  </g>
</svg>
