<?xml version="1.0" encoding="UTF-8" standalone="no"?>
<!-- Uploaded to: SVG Repo, www.svgrepo.com, Generator: SVG Repo Mixer Tools -->

<svg width="800px" height="800px" viewBox="0 0 512 512" version="1.1" id="svg1" xmlns="http://www.w3.org/2000/svg" xmlns:svg="http://www.w3.org/2000/svg">
  <defs id="defs1" />
  <path d="m 128.81,49.28 27.407,228.157 0.06,0.563 v 216.906 l 19.94,-39.28 20.468,38.155 V 296.814 L 168.563,57.5 128.813,49.28 Z" id="path3" style="fill:#ad0000;fill-opacity:1" />
  <g id="g7" style="fill:#008080;stroke:none;stroke-width:6.4;stroke-dasharray:none">
    <path d="m 215.374,313.938 v 31.813 l 27.564,10.53 c -7.04,-20.847 -16.565,-33.66 -27.438,-42.25 -0.04,-0.03 -0.084,-0.06 -0.125,-0.092 z" id="path7" style="fill:#008080;stroke:none;stroke-width:6.4;stroke-dasharray:none" />
    <path d="m 473.094,74.406 v 226.75 l -216.938,79.69 -40.78,-14.97 v 38.28 c 23.21,8.03 58.078,6.813 86.25,-2.53 v -17.563 l 184.03,-67.625 6.125,-2.25 V 74.407 h -18.686 z" id="path6" style="fill:#008080;stroke:none;stroke-width:6.4;stroke-dasharray:none" />
    <path d="m 20.5,74.376 v 239.813 l 6.125,2.25 110.97,40.78 V 337.313 L 39.188,301.157 V 74.376 Z" id="path5" style="fill:#008080;stroke:none;stroke-width:6.4;stroke-dasharray:none" />
    <path d="m 189.28,73.53 25.593,217.782 c 4.175,2.3 8.258,4.96 12.188,8.063 6.452,5.097 12.412,11.36 17.75,18.97 V 109.5 C 229.315,92.025 210.409,81.173 189.279,73.53 Z" id="path4" style="fill:#008080;stroke:none;stroke-width:6.4;stroke-dasharray:none" />
    <path d="m 454.719,43.03 c -65.178,17.392 -138.354,0.102 -191.22,70.814 v 208.812 c 19.795,-29.15 45.443,-40.866 70.72,-46.53 33.914,-7.603 66.18,-7.163 91.5,-27.626 l 11.75,14.53 c -31.256,25.263 -68.25,24.386 -99.158,31.314 -29.295,6.566 -53.978,17.63 -72.25,63.187 L 454.718,285.564 V 43.03 Z" id="path2" style="fill:#008080;stroke:none;stroke-width:6.4;stroke-dasharray:none" />
    <path d="m 57.594,43 v 242.563 l 80,30.53 V 292 c -22.504,-3.217 -45.065,-8.633 -62.53,-26.844 l 13.5,-12.937 c 12.15,12.667 29.032,17.263 48.28,20.374 L 110.656,55.03 C 93.3,51.725 75.492,48.1 57.594,43 Z" id="path1" style="fill:#008080;stroke:none;stroke-width:6.4;stroke-dasharray:none" />
  </g>
</svg>
