<?xml version="1.0" encoding="UTF-8" standalone="no"?>
<svg width="100mm" height="40mm" viewBox="0 0 99.999997 40.000003" version="1.1" id="svg8" xmlns="http://www.w3.org/2000/svg" xmlns:svg="http://www.w3.org/2000/svg" xmlns:rdf="http://www.w3.org/1999/02/22-rdf-syntax-ns#" xmlns:cc="http://creativecommons.org/ns#" xmlns:dc="http://purl.org/dc/elements/1.1/">
  <defs id="defs2" />
  <metadata id="metadata5">
    <rdf:RDF>
      <cc:Work rdf:about="">
        <dc:format>image/svg+xml</dc:format>
        <dc:type rdf:resource="http://purl.org/dc/dcmitype/StillImage" />
      </cc:Work>
    </rdf:RDF>
  </metadata>
  <path d="m 41.922433,14.928164 h 2.201847 v 11.066669 h 6.64383 v 2.220991 h -8.845677 z m 12.674993,0 h 2.201845 v 13.28766 h -2.201845 z m 8.232987,2.220992 v 4.422838 h 4.441985 q 0.899885,0 1.550865,-0.65098 0.65098,-0.65098 0.65098,-1.550864 0,-0.919032 -0.65098,-1.570012 -0.65098,-0.650982 -1.550865,-0.650982 z m 0,6.64383 v 4.422838 h -2.201845 v -13.28766 h 6.64383 q 1.818916,0 3.120877,1.301962 1.30196,1.301961 1.30196,3.140024 0,1.818915 -1.30196,3.140023 -1.301961,1.282813 -3.120877,1.282813 z m 16.5617,-1.110495 q -1.608304,0 -2.737948,-1.129644 -1.129641,-1.129642 -1.129641,-2.757092 0,-1.589158 1.129641,-2.718802 1.110497,-1.148789 2.737948,-1.148789 h 7.199077 v 2.220992 h -7.199077 q -0.344638,0 -0.650981,0.134018 -0.306343,0.114882 -0.536102,0.344637 -0.229757,0.229757 -0.363782,0.5361 -0.114882,0.306343 -0.114882,0.631836 0,0.689272 0.478662,1.18708 0.478663,0.497809 1.187082,0.497809 h 3.312342 q 1.608306,0 2.737947,1.129644 1.148789,1.129641 1.148789,2.737947 0,1.589156 -1.148789,2.737947 -1.129641,1.129642 -2.737947,1.129642 h -7.179931 v -2.220992 h 7.179931 q 0.344637,0 0.65098,-0.114882 0.306345,-0.134018 0.536103,-0.344637 0.229757,-0.229757 0.344637,-0.5361 0.134018,-0.306345 0.134018,-0.65098 0,-0.670127 -0.497809,-1.167936 Q 83.39372,22.68248 82.704446,22.68248 Z" id="text4520" style="font-size:11.7062px;line-height:1.25;font-family:Telegrafico;-inkscape-font-specification:Telegrafico;letter-spacing:0px;word-spacing:0px;stroke-width:0.622263" aria-label="LIPS" />
  <g id="text4537" style="font-style:normal;font-variant:normal;font-weight:normal;font-stretch:normal;font-size:19.5137px;line-height:1.25;font-family:'Times New Roman';-inkscape-font-specification:'Times New Roman, ';letter-spacing:0px;word-spacing:0px;fill:#000000;fill-opacity:1;stroke:none;stroke-width:0.487843" aria-label="λ" transform="matrix(2.1262604,0,0,2.1262604,-111.28142,-152.02165)">
    <path id="path853" style="font-style:normal;font-variant:normal;font-weight:normal;font-stretch:normal;font-family:'Times New Roman';-inkscape-font-specification:'Times New Roman, ';stroke-width:0.487843" d="m 67.841419,84.852808 h 0.343015 q 0,1.505453 -0.495466,2.191481 -0.485937,0.686029 -1.219607,0.686029 -0.600275,0 -1.152909,-0.447824 -0.552635,-0.457353 -0.990931,-2.429686 l -0.819423,-3.696933 -2.839397,6.441049 h -1.800826 l 4.07806,-8.784981 q -0.323958,-1.705544 -0.78131,-2.524967 -0.457353,-0.819424 -1.133854,-0.819424 -0.543106,0 -0.952818,0.41924 -0.400183,0.409712 -0.447824,1.276776 h -0.343014 q 0.02858,-1.400642 0.562162,-2.239122 0.533578,-0.848008 1.333945,-0.848008 0.514522,0 0.971874,0.428768 0.466881,0.41924 0.800367,1.448283 0.343015,1.019516 1.057628,4.24004 l 0.676501,3.020433 q 0.409712,1.877051 0.857536,2.515439 0.457353,0.62886 1.086212,0.62886 1.067156,0 1.210079,-1.505453 z" />
  </g>
  <path id="path826" style="font-style:normal;font-variant:normal;font-weight:normal;font-stretch:normal;font-size:10.5833px;line-height:1.25;font-family:Arial;-inkscape-font-specification:Arial;letter-spacing:0px;word-spacing:0px;fill:#000000;fill-opacity:1;stroke:none;stroke-width:0.562572" d="M 9.1082752,31.342097 Q 7.4710994,29.276399 6.3393611,26.507485 5.2076229,23.738571 5.2076229,20.771878 q 0,-2.615085 0.846056,-5.010418 0.9888982,-2.7799 3.0545963,-5.537828 h 1.4174208 q -1.3295191,2.285454 -1.7580413,3.263363 -0.6702526,1.516311 -1.054825,3.164475 -0.4724721,2.05471 -0.4724721,4.131395 0,5.285111 3.2853384,10.559232 z" />
  <path id="path828" style="font-style:normal;font-variant:normal;font-weight:normal;font-stretch:normal;font-size:10.5833px;line-height:1.25;font-family:Arial;-inkscape-font-specification:Arial;letter-spacing:0px;word-spacing:0px;fill:#000000;fill-opacity:1;stroke:none;stroke-width:0.562572" d="M 90.891709,31.342097 H 89.47428 q 3.285349,-5.274121 3.285349,-10.559232 0,-2.065699 -0.472476,-4.098431 -0.373584,-1.648165 -1.043845,-3.164475 -0.428506,-0.988898 -1.769028,-3.296327 h 1.417429 q 2.065705,2.757928 3.054586,5.537828 0.84606,2.395333 0.84606,5.010418 0,2.966693 -1.142716,5.735607 -1.131745,2.768914 -2.75793,4.834612 z" />
</svg>
