<?xml version="1.0" encoding="UTF-8" standalone="no"?>
<!-- Uploaded to: SVG Repo, www.svgrepo.com, Generator: SVG Repo Mixer Tools -->

<svg width="800px" height="800px" viewBox="0 0 512 512" version="1.1" id="svg1" xml:space="preserve" xmlns="http://www.w3.org/2000/svg" xmlns:svg="http://www.w3.org/2000/svg"><defs id="defs1" /><g id="g13" transform="translate(3.07008,6.2753295)"><path style="font-weight:bold;font-size:153.432px;line-height:1.25;font-family:Monospace;-inkscape-font-specification:'Monospace Bold';letter-spacing:0px;word-spacing:0px;fill:#008080;fill-opacity:1;stroke-width:5.04996" d="m 260.8872,104.25859 q 9.75654,12.30172 14.84691,27.99703 5.09037,15.55391 5.09037,33.65299 0,18.2405 -5.23177,34.2186 -5.09036,15.97811 -14.70551,28.42123 h -16.8265 q 9.47375,-13.43292 14.13991,-29.26962 4.80758,-15.97811 4.80758,-33.2288 0,-16.8265 -4.80758,-32.5218 -4.80756,-15.69531 -13.99851,-29.26963 z" id="path13" /><path style="font-weight:bold;font-size:153.432px;line-height:1.25;font-family:Monospace;-inkscape-font-specification:'Monospace Bold';letter-spacing:0px;word-spacing:0px;fill:#ad0000;fill-opacity:1;stroke-width:5.04996" d="m 208.14526,223.2064 q -5.37317,0 -9.04954,-1.97959 -3.53498,-2.12099 -5.79737,-5.51456 -2.12098,-3.53498 -3.39358,-7.77696 l -5.93876,-19.79588 q -0.84839,-2.82799 -1.69679,-5.79737 -0.8484,-3.11077 -1.55539,-5.93876 -0.5656,-2.96937 -0.84839,-5.09037 h -0.42421 q -0.98979,4.10057 -2.54517,8.90815 -1.5554,4.66617 -2.54519,7.49416 l -12.16033,34.07719 h -20.92708 l 29.83522,-73.10335 -2.54518,-6.78717 q -2.68658,-7.49416 -6.08016,-9.47375 -3.39359,-1.97958 -8.48396,-1.97958 -2.68658,0 -4.52476,0.2828 -1.83819,0.28279 -3.25219,0.5656 v -16.68511 q 1.9796,-0.42419 5.23178,-0.70699 3.39357,-0.4242 6.50435,-0.4242 8.48396,0 14.13992,2.82798 5.65596,2.82799 9.33234,8.34255 3.67638,5.37317 6.08017,13.43292 l 17.1093,56.27686 q 1.69678,5.51457 3.53497,8.48395 1.83819,2.82798 3.67638,3.81778 1.97959,0.98979 3.95918,0.98979 1.13119,0 2.26238,-0.14139 1.27259,-0.2828 2.40378,-0.5656 v 14.13991 q -1.13119,0.5656 -3.25217,0.9898 -2.12099,0.56559 -4.52477,0.84839 -2.40379,0.2828 -4.52478,0.2828 z" id="path12" /><path style="font-weight:bold;font-size:153.432px;line-height:1.25;font-family:Monospace;-inkscape-font-specification:'Monospace Bold';letter-spacing:0px;word-spacing:0px;fill:#008080;fill-opacity:1;stroke-width:5.04996" d="m 99.974851,228.54844 q -9.756533,-12.30173 -14.846909,-27.99703 -5.090368,-15.69531 -5.090368,-33.65299 0,-18.2405 5.090368,-34.2186 5.231774,-15.9781 14.846909,-28.42123 h 16.826499 q -9.47374,13.43291 -14.28131,29.41102 -4.666176,15.83671 -4.666176,33.08741 0,16.8265 4.807576,32.5218 4.94897,15.6953 13.99851,29.26962 z" id="text11" /><path id="path1-9" d="m 55.283532,33.203441 c -18.046928,0 -32.676562,14.629634 -32.676562,32.676562 V 433.56934 c 0,18.04691 14.629634,32.67656 32.676562,32.67656 H 450.57631 c 18.04692,0 32.67656,-14.62965 32.67656,-32.67656 V 65.880003 c 0,-18.046928 -14.62964,-32.676562 -32.67656,-32.676562 z m 0,32.676562 H 450.57631 V 433.56934 H 55.283532 Z" style="fill:#008080;fill-opacity:1;stroke-width:16.3384" /><g id="g11" transform="matrix(0.76586441,0,0,0.76586441,57.529472,629.05027)"><path id="path9" d="m 332.76379,-496.60711 c -15.35004,0 -28.30133,6.5245 -38.73374,16.80375 -1.54247,1.51983 -2.95341,3.03663 -4.2375,4.52875 h -12.495 c -28.61844,0 -51.2,24.19494 -51.2,53.33375 v 85.33376 c 0,29.13879 22.58156,53.33247 51.2,53.33247 h 153.59999 c 28.61846,0 51.2,-24.19368 51.2,-53.33247 v -85.33376 c 0,-29.13881 -22.58154,-53.33375 -51.2,-53.33375 h -12.49499 c -1.2841,-1.49213 -2.69511,-3.00893 -4.23751,-4.52875 -10.4324,-10.27925 -23.3837,-16.80375 -38.73373,-16.80375 z m 0,42.66625 h 42.66752 c 2.76032,0 5.68917,1.47592 8.78873,4.53 2.296,2.26228 3.88329,4.5577 4.36,5.4575 l 6.01127,11.34626 h 36.30623 c 4.37135,0 8.53376,4.45886 8.53376,10.66624 v 85.33376 c 0,6.20738 -4.16241,10.66623 -8.53376,10.66623 H 277.29755 c -4.37134,0 -8.53375,-4.45885 -8.53375,-10.66623 v -85.33376 c 0,-6.20738 4.16241,-10.66624 8.53375,-10.66624 h 36.30624 l 6.01126,-11.34626 c 0.4768,-0.8998 2.064,-3.19522 4.36,-5.4575 3.09956,-3.05406 6.02842,-4.53 8.78874,-4.53 z" style="fill:#008080;fill-opacity:1;stroke-width:21.3333" /><path d="m 354.09755,-343.64711 c -23.56414,0 -42.66667,-19.1025 -42.66667,-42.66666 0,-23.56414 19.10253,-42.66667 42.66667,-42.66667 23.56416,0 42.66666,19.10253 42.66666,42.66667 0,23.56416 -19.1025,42.66666 -42.66666,42.66666 z" id="path11" style="fill:#ad0000;fill-opacity:1;stroke-width:21.3333" /></g></g></svg>
