<svg id="mermaid-1615135637099" width="100%" xmlns="http://www.w3.org/2000/svg" xmlns:xlink="http://www.w3.org/1999/xlink" height="596" style="max-width: 2819.2890625px;" viewBox="-20 -20 2819.2890625 596"><style>#mermaid-1615135637099{font-family:"trebuchet ms",verdana,arial,sans-serif;font-size:16px;fill:#333;}#mermaid-1615135637099 .error-icon{fill:#552222;}#mermaid-1615135637099 .error-text{fill:#552222;stroke:#552222;}#mermaid-1615135637099 .edge-thickness-normal{stroke-width:2px;}#mermaid-1615135637099 .edge-thickness-thick{stroke-width:3.5px;}#mermaid-1615135637099 .edge-pattern-solid{stroke-dasharray:0;}#mermaid-1615135637099 .edge-pattern-dashed{stroke-dasharray:3;}#mermaid-1615135637099 .edge-pattern-dotted{stroke-dasharray:2;}#mermaid-1615135637099 .marker{fill:#333333;}#mermaid-1615135637099 .marker.cross{stroke:#333333;}#mermaid-1615135637099 svg{font-family:"trebuchet ms",verdana,arial,sans-serif;font-size:16px;}#mermaid-1615135637099 g.classGroup text{fill:#9370DB;fill:#131300;stroke:none;font-family:"trebuchet ms",verdana,arial,sans-serif;font-size:10px;}#mermaid-1615135637099 g.classGroup text .title{font-weight:bolder;}#mermaid-1615135637099 .classTitle{font-weight:bolder;}#mermaid-1615135637099 .node rect,#mermaid-1615135637099 .node circle,#mermaid-1615135637099 .node ellipse,#mermaid-1615135637099 .node polygon,#mermaid-1615135637099 .node path{fill:#ECECFF;stroke:#9370DB;stroke-width:1px;}#mermaid-1615135637099 .divider{stroke:#9370DB;stroke:1;}#mermaid-1615135637099 g.clickable{cursor:pointer;}#mermaid-1615135637099 g.classGroup rect{fill:#ECECFF;stroke:#9370DB;}#mermaid-1615135637099 g.classGroup line{stroke:#9370DB;stroke-width:1;}#mermaid-1615135637099 .classLabel .box{stroke:none;stroke-width:0;fill:#ECECFF;opacity:0.5;}#mermaid-1615135637099 .classLabel .label{fill:#9370DB;font-size:10px;}#mermaid-1615135637099 .relation{stroke:#333333;stroke-width:1;fill:none;}#mermaid-1615135637099 .dashed-line{stroke-dasharray:3;}#mermaid-1615135637099 #compositionStart,#mermaid-1615135637099 .composition{fill:#333333 !important;stroke:#333333 !important;stroke-width:1;}#mermaid-1615135637099 #compositionEnd,#mermaid-1615135637099 .composition{fill:#333333 !important;stroke:#333333 !important;stroke-width:1;}#mermaid-1615135637099 #dependencyStart,#mermaid-1615135637099 .dependency{fill:#333333 !important;stroke:#333333 !important;stroke-width:1;}#mermaid-1615135637099 #dependencyStart,#mermaid-1615135637099 .dependency{fill:#333333 !important;stroke:#333333 !important;stroke-width:1;}#mermaid-1615135637099 #extensionStart,#mermaid-1615135637099 .extension{fill:#333333 !important;stroke:#333333 !important;stroke-width:1;}#mermaid-1615135637099 #extensionEnd,#mermaid-1615135637099 .extension{fill:#333333 !important;stroke:#333333 !important;stroke-width:1;}#mermaid-1615135637099 #aggregationStart,#mermaid-1615135637099 .aggregation{fill:#ECECFF !important;stroke:#333333 !important;stroke-width:1;}#mermaid-1615135637099 #aggregationEnd,#mermaid-1615135637099 .aggregation{fill:#ECECFF !important;stroke:#333333 !important;stroke-width:1;}#mermaid-1615135637099 .edgeTerminals{font-size:11px;}#mermaid-1615135637099:root{--mermaid-font-family:"trebuchet ms",verdana,arial,sans-serif;}#mermaid-1615135637099 class{fill:apa;}</style><g></g><defs><marker id="extensionStart" class="extension" refX="0" refY="7" markerWidth="190" markerHeight="240" orient="auto"><path d="M 1,7 L18,13 V 1 Z"></path></marker></defs><defs><marker id="extensionEnd" refX="19" refY="7" markerWidth="20" markerHeight="28" orient="auto"><path d="M 1,1 V 13 L18,7 Z"></path></marker></defs><defs><marker id="compositionStart" class="extension" refX="0" refY="7" markerWidth="190" markerHeight="240" orient="auto"><path d="M 18,7 L9,13 L1,7 L9,1 Z"></path></marker></defs><defs><marker id="compositionEnd" refX="19" refY="7" markerWidth="20" markerHeight="28" orient="auto"><path d="M 18,7 L9,13 L1,7 L9,1 Z"></path></marker></defs><defs><marker id="aggregationStart" class="extension" refX="0" refY="7" markerWidth="190" markerHeight="240" orient="auto"><path d="M 18,7 L9,13 L1,7 L9,1 Z"></path></marker></defs><defs><marker id="aggregationEnd" refX="19" refY="7" markerWidth="20" markerHeight="28" orient="auto"><path d="M 18,7 L9,13 L1,7 L9,1 Z"></path></marker></defs><defs><marker id="dependencyStart" class="extension" refX="0" refY="7" markerWidth="190" markerHeight="240" orient="auto"><path d="M 5,7 L9,13 L1,7 L9,1 Z"></path></marker></defs><defs><marker id="dependencyEnd" refX="19" refY="7" markerWidth="20" markerHeight="28" orient="auto"><path d="M 18,7 L9,13 L14,7 L9,1 Z"></path></marker></defs><g id="classid-LNumber-0" class="classGroup" transform="translate(222.33203125,0 )"><rect x="0" y="0" width="98.828125" height="208" class=" "></rect><text y="15" x="0"><tspan class="title" x="27.7734375">LNumber</tspan></text><line x1="0" y1="21" y2="21" x2="98.828125"></line><text x="5" y="31" fill="white" class="classText"><tspan x="5">Number __value__</tspan></text><line x1="0" y1="37" y2="37" x2="98.828125"></line><text x="5" y="52" fill="white" class="classText"><tspan x="5">isFloat()</tspan><tspan x="5" dy="10">isNumber()</tspan><tspan x="5" dy="10">isComplex()</tspan><tspan x="5" dy="10">isRational()</tspan><tspan x="5" dy="10">isNative()</tspan><tspan x="5" dy="10">isBigInteger()</tspan><tspan x="5" dy="10">isBN()</tspan><tspan x="5" dy="10">getType()</tspan><tspan x="5" dy="10">coerce()</tspan><tspan x="5" dy="10">op()</tspan><tspan x="5" dy="10">sqrt()</tspan><tspan x="5" dy="10">pow()</tspan><tspan x="5" dy="10">abs()</tspan><tspan x="5" dy="10">isOdd()</tspan><tspan x="5" dy="10">isEven()</tspan><tspan x="5" dy="10">cmp()</tspan></text></g><g id="classid-LBigInteger-1" class="classGroup" transform="translate(0,328 )"><rect x="0" y="0" width="89.515625" height="78" class=" "></rect><text y="15" x="0"><tspan class="title" x="17.9296875">LBigInteger</tspan></text><line x1="0" y1="21" y2="21" x2="89.515625"></line><text x="5" y="31" fill="white" class="classText"><tspan x="5">BigInt __value__</tspan></text><line x1="0" y1="37" y2="37" x2="89.515625"></line><text x="5" y="52" fill="white" class="classText"><tspan x="5">sqrt()</tspan><tspan x="5" dy="10">gcd()</tspan><tspan x="5" dy="10">sqrt()</tspan></text></g><g id="classid-LRational-2" class="classGroup" transform="translate(139.515625,293 )"><rect x="0" y="0" width="110.03125" height="148" class=" "></rect><text y="15" x="0"><tspan class="title" x="33.109375">LRational</tspan></text><line x1="0" y1="21" y2="21" x2="110.03125"></line><text x="5" y="31" fill="white" class="classText"><tspan x="5">LNumber __num__</tspan><tspan x="5" dy="10">LNumber __denom__</tspan></text><line x1="0" y1="47" y2="47" x2="110.03125"></line><text x="5" y="62" fill="white" class="classText"><tspan x="5">pow()</tspan><tspan x="5" dy="10">abs()</tspan><tspan x="5" dy="10">cmp()</tspan><tspan x="5" dy="10">valueOf()</tspan><tspan x="5" dy="10">toString()</tspan><tspan x="5" dy="10">mul()</tspan><tspan x="5" dy="10">div()</tspan><tspan x="5" dy="10">sub()</tspan><tspan x="5" dy="10">add()</tspan></text></g><g id="classid-LFloat-3" class="classGroup" transform="translate(299.546875,333 )"><rect x="0" y="0" width="98.828125" height="68" class=" "></rect><text y="15" x="0"><tspan class="title" x="34.7578125">LFloat</tspan></text><line x1="0" y1="21" y2="21" x2="98.828125"></line><text x="5" y="31" fill="white" class="classText"><tspan x="5">Number __value__</tspan></text><line x1="0" y1="37" y2="37" x2="98.828125"></line><text x="5" y="52" fill="white" class="classText"><tspan x="5">toRational()</tspan><tspan x="5" dy="10">toString()</tspan></text></g><g id="classid-LComplex-4" class="classGroup" transform="translate(448.375,283 )"><rect x="0" y="0" width="91.03125" height="168" class=" "></rect><text y="15" x="0"><tspan class="title" x="22.3046875">LComplex</tspan></text><line x1="0" y1="21" y2="21" x2="91.03125"></line><text x="5" y="31" fill="white" class="classText"><tspan x="5">LNumber __im__</tspan><tspan x="5" dy="10">LNumber __re__</tspan></text><line x1="0" y1="47" y2="47" x2="91.03125"></line><text x="5" y="62" fill="white" class="classText"><tspan x="5">sqrt()</tspan><tspan x="5" dy="10">toRational()</tspan><tspan x="5" dy="10">add()</tspan><tspan x="5" dy="10">factor()</tspan><tspan x="5" dy="10">modulus()</tspan><tspan x="5" dy="10">sqrt()</tspan><tspan x="5" dy="10">div()</tspan><tspan x="5" dy="10">sub()</tspan><tspan x="5" dy="10">mul()</tspan><tspan x="5" dy="10">cmp()</tspan><tspan x="5" dy="10">toString()</tspan></text></g><g id="classid-InputPort-5" class="classGroup" transform="translate(588.796875,40 )"><rect x="0" y="0" width="82.203125" height="128" class=" "></rect><text y="15" x="0"><tspan class="title" x="19.2421875">InputPort</tspan></text><line x1="0" y1="21" y2="21" x2="82.203125"></line><text x="5" y="31" fill="white" class="classText"><tspan x="5">Function _read</tspan></text><line x1="0" y1="37" y2="37" x2="82.203125"></line><text x="5" y="52" fill="white" class="classText"><tspan x="5">read_char()</tspan><tspan x="5" dy="10">skip_char()</tspan><tspan x="5" dy="10">read_line()</tspan><tspan x="5" dy="10">read()</tspan><tspan x="5" dy="10">char_ready()</tspan><tspan x="5" dy="10">is_open()</tspan><tspan x="5" dy="10">close()</tspan><tspan x="5" dy="10">toString()</tspan></text></g><g id="classid-InputStringPort-6" class="classGroup" transform="translate(589.40625,352 )"><rect x="0" y="0" width="80.984375" height="30" class=" "></rect><text y="15" x="0"><tspan class="title" x="5">InputStringPort</tspan></text><line x1="0" y1="21" y2="21" x2="80.984375"></line><text x="5" y="31" fill="white" class="classText"></text><line x1="0" y1="26" y2="26" x2="80.984375"></line><text x="5" y="41" fill="white" class="classText"></text></g><g id="classid-InputFilePort-7" class="classGroup" transform="translate(594.28125,526 )"><rect x="0" y="0" width="71.234375" height="30" class=" "></rect><text y="15" x="0"><tspan class="title" x="5">InputFilePort</tspan></text><line x1="0" y1="21" y2="21" x2="71.234375"></line><text x="5" y="31" fill="white" class="classText"></text><line x1="0" y1="26" y2="26" x2="71.234375"></line><text x="5" y="41" fill="white" class="classText"></text></g><g id="classid-OutputPort-8" class="classGroup" transform="translate(803.44140625,70.5 )"><rect x="0" y="0" width="61.9375" height="67" class=" "></rect><text y="15" x="0"><tspan class="title" x="5">OutputPort</tspan></text><line x1="0" y1="21" y2="21" x2="61.9375"></line><text x="5" y="31" fill="white" class="classText"></text><line x1="0" y1="26" y2="26" x2="61.9375"></line><text x="5" y="41" fill="white" class="classText"><tspan x="5">is_open()</tspan><tspan x="5" dy="10">close()</tspan><tspan x="5" dy="10">toString()</tspan></text></g><g id="classid-OutputStringPort-9" class="classGroup" transform="translate(720.390625,346.5 )"><rect x="0" y="0" width="89.203125" height="41" class=" "></rect><text y="15" x="0"><tspan class="title" x="5">OutputStringPort</tspan></text><line x1="0" y1="21" y2="21" x2="89.203125"></line><text x="5" y="31" fill="white" class="classText"><tspan x="5">string[] _buffer</tspan></text><line x1="0" y1="37" y2="37" x2="89.203125"></line><text x="5" y="52" fill="white" class="classText"></text></g><g id="classid-OutputFilePort-10" class="classGroup" transform="translate(859.59375,341.5 )"><rect x="0" y="0" width="88.46875" height="51" class=" "></rect><text y="15" x="0"><tspan class="title" x="9.5078125">OutputFilePort</tspan></text><line x1="0" y1="21" y2="21" x2="88.46875"></line><text x="5" y="31" fill="white" class="classText"><tspan x="5">string _filename</tspan><tspan x="5" dy="10">number _fd</tspan></text><line x1="0" y1="47" y2="47" x2="88.46875"></line><text x="5" y="62" fill="white" class="classText"></text></g><g id="classid-Parser-11" class="classGroup" transform="translate(990.8984375,10 )"><rect x="0" y="0" width="106.875" height="188" class=" "></rect><text y="15" x="0"><tspan class="title" x="38.40625">Parser</tspan></text><line x1="0" y1="21" y2="21" x2="106.875"></line><text x="5" y="31" fill="white" class="classText"><tspan x="5">Lexer __lexer__</tspan><tspan x="5" dy="10">Environent __env__</tspan></text><line x1="0" y1="47" y2="47" x2="106.875"></line><text x="5" y="62" fill="white" class="classText"><tspan x="5">resolve()</tspan><tspan x="5" dy="10">peek()</tspan><tspan x="5" dy="10">skip()</tspan><tspan x="5" dy="10">read()</tspan><tspan x="5" dy="10">is_special(token)</tspan><tspan x="5" dy="10">is_builtin(token)</tspan><tspan x="5" dy="10">is_open(token)</tspan><tspan x="5" dy="10">is_close(token)</tspan><tspan x="5" dy="10">read_list()</tspan><tspan x="5" dy="10">read_value()</tspan><tspan x="5" dy="10">read_object()</tspan><tspan x="5" dy="10">is_ccomment(token)</tspan><tspan x="5" dy="10">evaluate(code)</tspan></text></g><g id="classid-Lexer-12" class="classGroup" transform="translate(998.0625,283 )"><rect x="0" y="0" width="92.546875" height="168" class=" "></rect><text y="15" x="0"><tspan class="title" x="32.5">Lexer</tspan></text><line x1="0" y1="21" y2="21" x2="92.546875"></line><text x="5" y="31" fill="white" class="classText"><tspan x="5">string __input__</tspan><tspan x="5" dy="10">static rules</tspan></text><line x1="0" y1="47" y2="47" x2="92.546875"></line><text x="5" y="62" fill="white" class="classText"><tspan x="5">token(meta)</tspan><tspan x="5" dy="10">peek(meta)</tspan><tspan x="5" dy="10">skip()</tspan><tspan x="5" dy="10">read_line()</tspan><tspan x="5" dy="10">read_rest()</tspan><tspan x="5" dy="10">read_string(num)</tspan><tspan x="5" dy="10">peek_char()</tspan><tspan x="5" dy="10">read_char()</tspan><tspan x="5" dy="10">skip_char()</tspan><tspan x="5" dy="10">match_rule()</tspan><tspan x="5" dy="10">next_token()</tspan></text></g><g id="classid-Macro-13" class="classGroup" transform="translate(1147.7734375,50 )"><rect x="0" y="0" width="117.65625" height="108" class=" "></rect><text y="15" x="0"><tspan class="title" x="44.7421875">Macro</tspan></text><line x1="0" y1="21" y2="21" x2="117.65625"></line><text x="5" y="31" fill="white" class="classText"><tspan x="5">string __doc__</tspan><tspan x="5" dy="10">string __name__</tspan><tspan x="5" dy="10">boolean __defmacro__</tspan><tspan x="5" dy="10">Function __fn__</tspan></text><line x1="0" y1="67" y2="67" x2="117.65625"></line><text x="5" y="82" fill="white" class="classText"><tspan x="5">defmacro()</tspan><tspan x="5" dy="10">invoke()</tspan><tspan x="5" dy="10">toString()</tspan></text></g><g id="classid-Syntax-14" class="classGroup" transform="translate(1177.6015625,338.5 )"><rect x="0" y="0" width="58" height="57" class=" "></rect><text y="15" x="0"><tspan class="title" x="13.171875">Syntax</tspan></text><line x1="0" y1="21" y2="21" x2="58"></line><text x="5" y="31" fill="white" class="classText"></text><line x1="0" y1="26" y2="26" x2="58"></line><text x="5" y="41" fill="white" class="classText"><tspan x="5">invoke()</tspan><tspan x="5" dy="10">toString()</tspan></text></g><g id="classid-String-15" class="classGroup" transform="translate(1329.3203125,89 )"><rect x="0" y="0" width="37.265625" height="30" class=" "></rect><text y="15" x="0"><tspan class="title" x="5">String</tspan></text><line x1="0" y1="21" y2="21" x2="37.265625"></line><text x="5" y="31" fill="white" class="classText"></text><line x1="0" y1="26" y2="26" x2="37.265625"></line><text x="5" y="41" fill="white" class="classText"></text></g><g id="classid-LString-16" class="classGroup" transform="translate(1285.6015625,298 )"><rect x="0" y="0" width="124.703125" height="138" class=" "></rect><text y="15" x="0"><tspan class="title" x="45.953125">LString</tspan></text><line x1="0" y1="21" y2="21" x2="124.703125"></line><text x="5" y="31" fill="white" class="classText"><tspan x="5">string __string__</tspan><tspan x="5" dy="10">number length</tspan></text><line x1="0" y1="47" y2="47" x2="124.703125"></line><text x="5" y="62" fill="white" class="classText"><tspan x="5">toString()</tspan><tspan x="5" dy="10">get(number)</tspan><tspan x="5" dy="10">cmp(string)</tspan><tspan x="5" dy="10">lower()</tspan><tspan x="5" dy="10">upper()</tspan><tspan x="5" dy="10">set(number, LCharacter)</tspan><tspan x="5" dy="10">clone()</tspan><tspan x="5" dy="10">fill(LCharacter)</tspan></text></g><g id="classid-Formatter-17" class="classGroup" transform="translate(1462.203125,60 )"><rect x="0" y="0" width="152.984375" height="88" class=" "></rect><text y="15" x="0"><tspan class="title" x="52.5390625">Formatter</tspan></text><line x1="0" y1="21" y2="21" x2="152.984375"></line><text x="5" y="31" fill="white" class="classText"><tspan x="5">string __code__</tspan></text><line x1="0" y1="37" y2="37" x2="152.984375"></line><text x="5" y="52" fill="white" class="classText"><tspan x="5">indent(object)</tspan><tspan x="5" dy="10">exception_shift(token, object)</tspan><tspan x="5" dy="10">break()</tspan><tspan x="5" dy="10">format()</tspan></text></g><g id="classid-Ahead-18" class="classGroup" transform="translate(1466.85546875,352 )"><rect x="0" y="0" width="39.34375" height="30" class=" "></rect><text y="15" x="0"><tspan class="title" x="5">Ahead</tspan></text><line x1="0" y1="21" y2="21" x2="39.34375"></line><text x="5" y="31" fill="white" class="classText"></text><line x1="0" y1="26" y2="26" x2="39.34375"></line><text x="5" y="41" fill="white" class="classText"></text></g><g id="classid-Pattern-19" class="classGroup" transform="translate(1556.19921875,341.5 )"><rect x="0" y="0" width="69.328125" height="51" class=" "></rect><text y="15" x="0"><tspan class="title" x="17.3203125">Pattern</tspan></text><line x1="0" y1="21" y2="21" x2="69.328125"></line><text x="5" y="31" fill="white" class="classText"><tspan x="5">rule pattern</tspan><tspan x="5" dy="10">string flag</tspan></text><line x1="0" y1="47" y2="47" x2="69.328125"></line><text x="5" y="62" fill="white" class="classText"></text></g><g id="classid-Interpreter-20" class="classGroup" transform="translate(1685.5703125,60 )"><rect x="0" y="0" width="192.171875" height="88" class=" "></rect><text y="15" x="0"><tspan class="title" x="69.46875">Interpreter</tspan></text><line x1="0" y1="21" y2="21" x2="192.171875"></line><text x="5" y="31" fill="white" class="classText"><tspan x="5">Environment __env__</tspan></text><line x1="0" y1="37" y2="37" x2="192.171875"></line><text x="5" y="52" fill="white" class="classText"><tspan x="5">get(symbol)</tspan><tspan x="5" dy="10">set(symbol, value)</tspan><tspan x="5" dy="10">constant(name, value)</tspan><tspan x="5" dy="10">exec(code, dynamic = false, env = null)</tspan></text></g><g id="classid-Environment-21" class="classGroup" transform="translate(1707.3125,258 )"><rect x="0" y="0" width="148.6875" height="218" class=" "></rect><text y="15" x="0"><tspan class="title" x="44.21875">Environment</tspan></text><line x1="0" y1="21" y2="21" x2="148.6875"></line><text x="5" y="31" fill="white" class="classText"><tspan x="5">string __name__</tspan><tspan x="5" dy="10">Map __docs__</tspan><tspan x="5" dy="10">Object __env__</tspan><tspan x="5" dy="10">Environment __parent__</tspan></text><line x1="0" y1="67" y2="67" x2="148.6875"></line><text x="5" y="82" fill="white" class="classText"><tspan x="5">list()</tspan><tspan x="5" dy="10">uset(name)</tspan><tspan x="5" dy="10">inherit(name, object)</tspan><tspan x="5" dy="10">doc(name, value = null)</tspan><tspan x="5" dy="10">get(symbol, options)</tspan><tspan x="5" dy="10">set(symbol, value, doc = null)</tspan><tspan x="5" dy="10">constant(name, value)</tspan><tspan x="5" dy="10">has(string)</tspan><tspan x="5" dy="10">ref(string)</tspan><tspan x="5" dy="10">parents()</tspan><tspan x="5" dy="10">newFrame(Function, args)</tspan><tspan x="5" dy="10">clone()</tspan><tspan x="5" dy="10">merge()</tspan><tspan x="5" dy="10">toString()</tspan></text></g><g id="classid-Worker-22" class="classGroup" transform="translate(1927.7421875,65 )"><rect x="0" y="0" width="116.25" height="78" class=" "></rect><text y="15" x="0"><tspan class="title" x="40.7109375">Worker</tspan></text><line x1="0" y1="21" y2="21" x2="116.25"></line><text x="5" y="31" fill="white" class="classText"><tspan x="5">string url</tspan><tspan x="5" dy="10">Worker worker</tspan></text><line x1="0" y1="47" y2="47" x2="116.25"></line><text x="5" y="62" fill="white" class="classText"><tspan x="5">rpc(method, params)</tspan><tspan x="5" dy="10">exec(code, [dynamic])</tspan></text></g><g id="classid-LCharacter-23" class="classGroup" transform="translate(2093.9921875,55 )"><rect x="0" y="0" width="89.453125" height="98" class=" "></rect><text y="15" x="0"><tspan class="title" x="18.7109375">LCharacter</tspan></text><line x1="0" y1="21" y2="21" x2="89.453125"></line><text x="5" y="31" fill="white" class="classText"><tspan x="5">string __name__</tspan><tspan x="5" dy="10">string __char__</tspan></text><line x1="0" y1="47" y2="47" x2="89.453125"></line><text x="5" y="62" fill="white" class="classText"><tspan x="5">toUpperCase()</tspan><tspan x="5" dy="10">toLowerCase()</tspan><tspan x="5" dy="10">toString()</tspan><tspan x="5" dy="10">valueOf()</tspan></text></g><g id="classid-LSymbol-24" class="classGroup" transform="translate(2233.4453125,83.5 )"><rect x="0" y="0" width="89.453125" height="41" class=" "></rect><text y="15" x="0"><tspan class="title" x="25.203125">LSymbol</tspan></text><line x1="0" y1="21" y2="21" x2="89.453125"></line><text x="5" y="31" fill="white" class="classText"><tspan x="5">string __name__</tspan></text><line x1="0" y1="37" y2="37" x2="89.453125"></line><text x="5" y="52" fill="white" class="classText"></text></g><g id="classid-Values-25" class="classGroup" transform="translate(2372.8984375,70 )"><rect x="0" y="0" width="90.8125" height="68" class=" "></rect><text y="15" x="0"><tspan class="title" x="30.546875">Values</tspan></text><line x1="0" y1="21" y2="21" x2="90.8125"></line><text x="5" y="31" fill="white" class="classText"><tspan x="5">any[] __values__</tspan></text><line x1="0" y1="37" y2="37" x2="90.8125"></line><text x="5" y="52" fill="white" class="classText"><tspan x="5">valueOf()</tspan><tspan x="5" dy="10">toString()</tspan></text></g><g id="classid-QuotedPromise-26" class="classGroup" transform="translate(2513.7109375,65 )"><rect x="0" y="0" width="110.25" height="78" class=" "></rect><text y="15" x="0"><tspan class="title" x="19.1953125">QuotedPromise</tspan></text><line x1="0" y1="21" y2="21" x2="110.25"></line><text x="5" y="31" fill="white" class="classText"><tspan x="5">Promise __promise__</tspan></text><line x1="0" y1="37" y2="37" x2="110.25"></line><text x="5" y="52" fill="white" class="classText"><tspan x="5">then()</tspan><tspan x="5" dy="10">catch()</tspan><tspan x="5" dy="10">valueOf()</tspan></text></g><g id="classid-Pair-27" class="classGroup" transform="translate(2673.9609375,20 )"><rect x="0" y="0" width="105.328125" height="168" class=" "></rect><text y="15" x="0"><tspan class="title" x="43.3046875">Pair</tspan></text><line x1="0" y1="21" y2="21" x2="105.328125"></line><text x="5" y="31" fill="white" class="classText"><tspan x="5">any car</tspan><tspan x="5" dy="10">any cdr</tspan></text><line x1="0" y1="47" y2="47" x2="105.328125"></line><text x="5" y="62" fill="white" class="classText"><tspan x="5">flatten()</tspan><tspan x="5" dy="10">length()</tspan><tspan x="5" dy="10">find(any)</tspan><tspan x="5" dy="10">clone()</tspan><tspan x="5" dy="10">last_pair()</tspan><tspan x="5" dy="10">to_array()</tspan><tspan x="5" dy="10">to_object()</tspan><tspan x="5" dy="10">reduce(Function)</tspan><tspan x="5" dy="10">reverse()</tspan><tspan x="5" dy="10">transform(Function)</tspan><tspan x="5" dy="10">map(Function)</tspan></text></g><path d="M222.33203125,132.08256896522053L192.736328125,148.90214080435044C163.140625,165.72171264348034,103.94921875,199.36085632174016,74.353515625,232.01376149420344C44.7578125,264.6666666666667,44.7578125,296.3333333333333,44.7578125,312.1666666666667L44.7578125,328" id="edge0" class="relation" marker-start="url(#extensionStart)"></path><path d="M222.33203125,186.55425709515862L217.69856770833334,194.29521424596552C213.06510416666666,202.0361713967724,203.79817708333334,217.51808569838622,199.16471354166666,235.2590428491931C194.53125,253,194.53125,273,194.53125,283L194.53125,293" id="edge1" class="relation" marker-start="url(#extensionStart)"></path><path d="M321.16015625,186.55425709515862L325.7936197916667,194.29521424596552C330.4270833333333,202.0361713967724,339.6940104166667,217.51808569838622,344.3274739583333,241.92570951585978C348.9609375,266.3333333333333,348.9609375,299.6666666666667,348.9609375,316.3333333333333L348.9609375,333" id="edge2" class="relation" marker-start="url(#extensionStart)"></path><path d="M321.16015625,132.69489528565651L349.9485677083333,149.4124127380471C378.7369791666667,166.12993019043768,436.3138020833333,199.5649650952188,465.1022135416667,224.61581588094273C493.890625,249.66666666666666,493.890625,266.3333333333333,493.890625,274.6666666666667L493.890625,283" id="edge3" class="relation" marker-start="url(#extensionStart)"></path><path d="M629.8984375,168L629.8984375,178.83333333333334C629.8984375,189.66666666666666,629.8984375,211.33333333333334,629.8984375,242C629.8984375,272.6666666666667,629.8984375,312.3333333333333,629.8984375,332.1666666666667L629.8984375,352" id="edge4" class="relation" marker-start="url(#extensionStart)"></path><path d="M629.8984375,382L629.8984375,401.8333333333333C629.8984375,421.6666666666667,629.8984375,461.3333333333333,629.8984375,485.3333333333333C629.8984375,509.3333333333333,629.8984375,517.6666666666666,629.8984375,521.8333333333334L629.8984375,526" id="edge5" class="relation" marker-start="url(#extensionStart)"></path><path d="M816.3830093265503,137.5L807.8178723554587,153.41666666666666C799.2527353843669,169.33333333333334,782.1224614421835,201.16666666666666,773.5573244710918,236C764.9921875,270.8333333333333,764.9921875,308.6666666666667,764.9921875,327.5833333333333L764.9921875,346.5" id="edge6" class="relation" marker-start="url(#extensionStart)"></path><path d="M852.4373031734497,137.5L861.0024401445413,153.41666666666666C869.5675771156331,169.33333333333334,886.6978510578165,201.16666666666666,895.2629880289082,235.16666666666666C903.828125,269.1666666666667,903.828125,305.3333333333333,903.828125,323.4166666666667L903.828125,341.5" id="edge7" class="relation" marker-start="url(#extensionStart)"></path><path d="M1044.3359375,198L1044.3359375,203.83333333333334C1044.3359375,209.66666666666666,1044.3359375,221.33333333333334,1044.3359375,235.5C1044.3359375,249.66666666666666,1044.3359375,266.3333333333333,1044.3359375,274.6666666666667L1044.3359375,283" id="edge8" class="relation" marker-start="url(#compositionStart)"></path><path d="M1206.6015625,158L1206.6015625,170.5C1206.6015625,183,1206.6015625,208,1206.6015625,238.08333333333334C1206.6015625,268.1666666666667,1206.6015625,303.3333333333333,1206.6015625,320.9166666666667L1206.6015625,338.5" id="edge9" class="relation" marker-start="url(#extensionStart)"></path><path d="M1347.953125,119L1347.953125,138C1347.953125,157,1347.953125,195,1347.953125,224.83333333333334C1347.953125,254.66666666666666,1347.953125,276.3333333333333,1347.953125,287.1666666666667L1347.953125,298" id="edge10" class="relation" marker-start="url(#extensionStart)"></path><path d="M1520.9015867248063,148L1515.172546229005,162.16666666666666C1509.4435057332041,176.33333333333334,1497.9854247416022,204.66666666666666,1492.256384245801,238.66666666666666C1486.52734375,272.6666666666667,1486.52734375,312.3333333333333,1486.52734375,332.1666666666667L1486.52734375,352" id="edge11" class="relation" marker-start="url(#compositionStart)"></path><path d="M1556.4890382751937,148L1562.218078770995,162.16666666666666C1567.9471192667959,176.33333333333334,1579.4052002583978,204.66666666666666,1585.134240754199,236.91666666666666C1590.86328125,269.1666666666667,1590.86328125,305.3333333333333,1590.86328125,323.4166666666667L1590.86328125,341.5" id="edge12" class="relation" marker-start="url(#compositionStart)"></path><path d="M1781.65625,148L1781.65625,162.16666666666666C1781.65625,176.33333333333334,1781.65625,204.66666666666666,1781.65625,223C1781.65625,241.33333333333334,1781.65625,249.66666666666666,1781.65625,253.83333333333334L1781.65625,258" id="edge13" class="relation" marker-start="url(#compositionStart)"></path></svg>