<svg id="mermaid-1610567067273" width="100%" xmlns="http://www.w3.org/2000/svg" xmlns:xlink="http://www.w3.org/1999/xlink" height="596" style="max-width: 2735.078125px;" viewBox="-20 -20 2735.078125 596"><style>#mermaid-1610567067273{font-family:"trebuchet ms",verdana,arial,sans-serif;font-size:16px;fill:#333;}#mermaid-1610567067273 .error-icon{fill:#552222;}#mermaid-1610567067273 .error-text{fill:#552222;stroke:#552222;}#mermaid-1610567067273 .edge-thickness-normal{stroke-width:2px;}#mermaid-1610567067273 .edge-thickness-thick{stroke-width:3.5px;}#mermaid-1610567067273 .edge-pattern-solid{stroke-dasharray:0;}#mermaid-1610567067273 .edge-pattern-dashed{stroke-dasharray:3;}#mermaid-1610567067273 .edge-pattern-dotted{stroke-dasharray:2;}#mermaid-1610567067273 .marker{fill:#333333;}#mermaid-1610567067273 .marker.cross{stroke:#333333;}#mermaid-1610567067273 svg{font-family:"trebuchet ms",verdana,arial,sans-serif;font-size:16px;}#mermaid-1610567067273 g.classGroup text{fill:#9370DB;fill:#131300;stroke:none;font-family:"trebuchet ms",verdana,arial,sans-serif;font-size:10px;}#mermaid-1610567067273 g.classGroup text .title{font-weight:bolder;}#mermaid-1610567067273 .classTitle{font-weight:bolder;}#mermaid-1610567067273 .node rect,#mermaid-1610567067273 .node circle,#mermaid-1610567067273 .node ellipse,#mermaid-1610567067273 .node polygon,#mermaid-1610567067273 .node path{fill:#ECECFF;stroke:#9370DB;stroke-width:1px;}#mermaid-1610567067273 .divider{stroke:#9370DB;stroke:1;}#mermaid-1610567067273 g.clickable{cursor:pointer;}#mermaid-1610567067273 g.classGroup rect{fill:#ECECFF;stroke:#9370DB;}#mermaid-1610567067273 g.classGroup line{stroke:#9370DB;stroke-width:1;}#mermaid-1610567067273 .classLabel .box{stroke:none;stroke-width:0;fill:#ECECFF;opacity:0.5;}#mermaid-1610567067273 .classLabel .label{fill:#9370DB;font-size:10px;}#mermaid-1610567067273 .relation{stroke:#333333;stroke-width:1;fill:none;}#mermaid-1610567067273 .dashed-line{stroke-dasharray:3;}#mermaid-1610567067273 #compositionStart,#mermaid-1610567067273 .composition{fill:#333333 !important;stroke:#333333 !important;stroke-width:1;}#mermaid-1610567067273 #compositionEnd,#mermaid-1610567067273 .composition{fill:#333333 !important;stroke:#333333 !important;stroke-width:1;}#mermaid-1610567067273 #dependencyStart,#mermaid-1610567067273 .dependency{fill:#333333 !important;stroke:#333333 !important;stroke-width:1;}#mermaid-1610567067273 #dependencyStart,#mermaid-1610567067273 .dependency{fill:#333333 !important;stroke:#333333 !important;stroke-width:1;}#mermaid-1610567067273 #extensionStart,#mermaid-1610567067273 .extension{fill:#333333 !important;stroke:#333333 !important;stroke-width:1;}#mermaid-1610567067273 #extensionEnd,#mermaid-1610567067273 .extension{fill:#333333 !important;stroke:#333333 !important;stroke-width:1;}#mermaid-1610567067273 #aggregationStart,#mermaid-1610567067273 .aggregation{fill:#ECECFF !important;stroke:#333333 !important;stroke-width:1;}#mermaid-1610567067273 #aggregationEnd,#mermaid-1610567067273 .aggregation{fill:#ECECFF !important;stroke:#333333 !important;stroke-width:1;}#mermaid-1610567067273 .edgeTerminals{font-size:11px;}#mermaid-1610567067273:root{--mermaid-font-family:"trebuchet ms",verdana,arial,sans-serif;}#mermaid-1610567067273 class{fill:apa;}</style><g></g><defs><marker id="extensionStart" class="extension" refX="0" refY="7" markerWidth="190" markerHeight="240" orient="auto"><path d="M 1,7 L18,13 V 1 Z"></path></marker></defs><defs><marker id="extensionEnd" refX="19" refY="7" markerWidth="20" markerHeight="28" orient="auto"><path d="M 1,1 V 13 L18,7 Z"></path></marker></defs><defs><marker id="compositionStart" class="extension" refX="0" refY="7" markerWidth="190" markerHeight="240" orient="auto"><path d="M 18,7 L9,13 L1,7 L9,1 Z"></path></marker></defs><defs><marker id="compositionEnd" refX="19" refY="7" markerWidth="20" markerHeight="28" orient="auto"><path d="M 18,7 L9,13 L1,7 L9,1 Z"></path></marker></defs><defs><marker id="aggregationStart" class="extension" refX="0" refY="7" markerWidth="190" markerHeight="240" orient="auto"><path d="M 18,7 L9,13 L1,7 L9,1 Z"></path></marker></defs><defs><marker id="aggregationEnd" refX="19" refY="7" markerWidth="20" markerHeight="28" orient="auto"><path d="M 18,7 L9,13 L1,7 L9,1 Z"></path></marker></defs><defs><marker id="dependencyStart" class="extension" refX="0" refY="7" markerWidth="190" markerHeight="240" orient="auto"><path d="M 5,7 L9,13 L1,7 L9,1 Z"></path></marker></defs><defs><marker id="dependencyEnd" refX="19" refY="7" markerWidth="20" markerHeight="28" orient="auto"><path d="M 18,7 L9,13 L14,7 L9,1 Z"></path></marker></defs><g id="classid-LNumber-0" class="classGroup" transform="translate(190.140625,0 )"><rect x="0" y="0" width="77.640625" height="208" class=" "></rect><text y="15" x="0"><tspan class="title" x="17.1796875">LNumber</tspan></text><line x1="0" y1="21" y2="21" x2="77.640625"></line><text x="5" y="31" fill="white" class="classText"><tspan x="5">Number value</tspan></text><line x1="0" y1="37" y2="37" x2="77.640625"></line><text x="5" y="52" fill="white" class="classText"><tspan x="5">isFloat()</tspan><tspan x="5" dy="10">isNumber()</tspan><tspan x="5" dy="10">isComplex()</tspan><tspan x="5" dy="10">isRational()</tspan><tspan x="5" dy="10">isNative()</tspan><tspan x="5" dy="10">isBigInteger()</tspan><tspan x="5" dy="10">isBN()</tspan><tspan x="5" dy="10">getType()</tspan><tspan x="5" dy="10">coerce()</tspan><tspan x="5" dy="10">op()</tspan><tspan x="5" dy="10">sqrt()</tspan><tspan x="5" dy="10">pow()</tspan><tspan x="5" dy="10">abs()</tspan><tspan x="5" dy="10">isOdd()</tspan><tspan x="5" dy="10">isEven()</tspan><tspan x="5" dy="10">cmp()</tspan></text></g><g id="classid-LBigInteger-1" class="classGroup" transform="translate(0,328 )"><rect x="0" y="0" width="68.328125" height="78" class=" "></rect><text y="15" x="0"><tspan class="title" x="7.3359375">LBigInteger</tspan></text><line x1="0" y1="21" y2="21" x2="68.328125"></line><text x="5" y="31" fill="white" class="classText"><tspan x="5">BigInt value</tspan></text><line x1="0" y1="37" y2="37" x2="68.328125"></line><text x="5" y="52" fill="white" class="classText"><tspan x="5">sqrt()</tspan><tspan x="5" dy="10">gcd()</tspan><tspan x="5" dy="10">sqrt()</tspan></text></g><g id="classid-LRational-2" class="classGroup" transform="translate(118.328125,293 )"><rect x="0" y="0" width="88.296875" height="148" class=" "></rect><text y="15" x="0"><tspan class="title" x="22.2421875">LRational</tspan></text><line x1="0" y1="21" y2="21" x2="88.296875"></line><text x="5" y="31" fill="white" class="classText"><tspan x="5">LNumber num</tspan><tspan x="5" dy="10">LNumber denom</tspan></text><line x1="0" y1="47" y2="47" x2="88.296875"></line><text x="5" y="62" fill="white" class="classText"><tspan x="5">pow()</tspan><tspan x="5" dy="10">abs()</tspan><tspan x="5" dy="10">cmp()</tspan><tspan x="5" dy="10">valueOf()</tspan><tspan x="5" dy="10">toString()</tspan><tspan x="5" dy="10">mul()</tspan><tspan x="5" dy="10">div()</tspan><tspan x="5" dy="10">sub()</tspan><tspan x="5" dy="10">add()</tspan></text></g><g id="classid-LFloat-3" class="classGroup" transform="translate(256.625,333 )"><rect x="0" y="0" width="77.640625" height="68" class=" "></rect><text y="15" x="0"><tspan class="title" x="24.1640625">LFloat</tspan></text><line x1="0" y1="21" y2="21" x2="77.640625"></line><text x="5" y="31" fill="white" class="classText"><tspan x="5">Number value</tspan></text><line x1="0" y1="37" y2="37" x2="77.640625"></line><text x="5" y="52" fill="white" class="classText"><tspan x="5">toRational()</tspan><tspan x="5" dy="10">toString()</tspan></text></g><g id="classid-LComplex-4" class="classGroup" transform="translate(384.265625,283 )"><rect x="0" y="0" width="91.03125" height="168" class=" "></rect><text y="15" x="0"><tspan class="title" x="22.3046875">LComplex</tspan></text><line x1="0" y1="21" y2="21" x2="91.03125"></line><text x="5" y="31" fill="white" class="classText"><tspan x="5">LNumber __im__</tspan><tspan x="5" dy="10">LNumber __re__</tspan></text><line x1="0" y1="47" y2="47" x2="91.03125"></line><text x="5" y="62" fill="white" class="classText"><tspan x="5">sqrt()</tspan><tspan x="5" dy="10">toRational()</tspan><tspan x="5" dy="10">add()</tspan><tspan x="5" dy="10">factor()</tspan><tspan x="5" dy="10">modulus()</tspan><tspan x="5" dy="10">sqrt()</tspan><tspan x="5" dy="10">div()</tspan><tspan x="5" dy="10">sub()</tspan><tspan x="5" dy="10">mul()</tspan><tspan x="5" dy="10">cmp()</tspan><tspan x="5" dy="10">toString()</tspan></text></g><g id="classid-InputPort-5" class="classGroup" transform="translate(524.6875,40 )"><rect x="0" y="0" width="82.203125" height="128" class=" "></rect><text y="15" x="0"><tspan class="title" x="19.2421875">InputPort</tspan></text><line x1="0" y1="21" y2="21" x2="82.203125"></line><text x="5" y="31" fill="white" class="classText"><tspan x="5">Function _read</tspan></text><line x1="0" y1="37" y2="37" x2="82.203125"></line><text x="5" y="52" fill="white" class="classText"><tspan x="5">read_char()</tspan><tspan x="5" dy="10">skip_char()</tspan><tspan x="5" dy="10">read_line()</tspan><tspan x="5" dy="10">read()</tspan><tspan x="5" dy="10">char_ready()</tspan><tspan x="5" dy="10">is_open()</tspan><tspan x="5" dy="10">close()</tspan><tspan x="5" dy="10">toString()</tspan></text></g><g id="classid-InputStringPort-6" class="classGroup" transform="translate(525.296875,352 )"><rect x="0" y="0" width="80.984375" height="30" class=" "></rect><text y="15" x="0"><tspan class="title" x="5">InputStringPort</tspan></text><line x1="0" y1="21" y2="21" x2="80.984375"></line><text x="5" y="31" fill="white" class="classText"></text><line x1="0" y1="26" y2="26" x2="80.984375"></line><text x="5" y="41" fill="white" class="classText"></text></g><g id="classid-InputFilePort-7" class="classGroup" transform="translate(530.171875,526 )"><rect x="0" y="0" width="71.234375" height="30" class=" "></rect><text y="15" x="0"><tspan class="title" x="5">InputFilePort</tspan></text><line x1="0" y1="21" y2="21" x2="71.234375"></line><text x="5" y="31" fill="white" class="classText"></text><line x1="0" y1="26" y2="26" x2="71.234375"></line><text x="5" y="41" fill="white" class="classText"></text></g><g id="classid-OutputPort-8" class="classGroup" transform="translate(739.33203125,70.5 )"><rect x="0" y="0" width="61.9375" height="67" class=" "></rect><text y="15" x="0"><tspan class="title" x="5">OutputPort</tspan></text><line x1="0" y1="21" y2="21" x2="61.9375"></line><text x="5" y="31" fill="white" class="classText"></text><line x1="0" y1="26" y2="26" x2="61.9375"></line><text x="5" y="41" fill="white" class="classText"><tspan x="5">is_open()</tspan><tspan x="5" dy="10">close()</tspan><tspan x="5" dy="10">toString()</tspan></text></g><g id="classid-OutputStringPort-9" class="classGroup" transform="translate(656.28125,346.5 )"><rect x="0" y="0" width="89.203125" height="41" class=" "></rect><text y="15" x="0"><tspan class="title" x="5">OutputStringPort</tspan></text><line x1="0" y1="21" y2="21" x2="89.203125"></line><text x="5" y="31" fill="white" class="classText"><tspan x="5">string[] _buffer</tspan></text><line x1="0" y1="37" y2="37" x2="89.203125"></line><text x="5" y="52" fill="white" class="classText"></text></g><g id="classid-OutputFilePort-10" class="classGroup" transform="translate(795.484375,341.5 )"><rect x="0" y="0" width="88.46875" height="51" class=" "></rect><text y="15" x="0"><tspan class="title" x="9.5078125">OutputFilePort</tspan></text><line x1="0" y1="21" y2="21" x2="88.46875"></line><text x="5" y="31" fill="white" class="classText"><tspan x="5">string _filename</tspan><tspan x="5" dy="10">number _fd</tspan></text><line x1="0" y1="47" y2="47" x2="88.46875"></line><text x="5" y="62" fill="white" class="classText"></text></g><g id="classid-Parser-11" class="classGroup" transform="translate(926.1875,83.5 )"><rect x="0" y="0" width="87.375" height="41" class=" "></rect><text y="15" x="0"><tspan class="title" x="28.65625">Parser</tspan></text><line x1="0" y1="21" y2="21" x2="87.375"></line><text x="5" y="31" fill="white" class="classText"><tspan x="5">Lexer __lexer__</tspan></text><line x1="0" y1="37" y2="37" x2="87.375"></line><text x="5" y="52" fill="white" class="classText"></text></g><g id="classid-Lexer-12" class="classGroup" transform="translate(933.953125,346.5 )"><rect x="0" y="0" width="71.84375" height="41" class=" "></rect><text y="15" x="0"><tspan class="title" x="22.1484375">Lexer</tspan></text><line x1="0" y1="21" y2="21" x2="71.84375"></line><text x="5" y="31" fill="white" class="classText"><tspan x="5">string _input</tspan></text><line x1="0" y1="37" y2="37" x2="71.84375"></line><text x="5" y="52" fill="white" class="classText"></text></g><g id="classid-Macro-13" class="classGroup" transform="translate(1063.5625,50 )"><rect x="0" y="0" width="117.65625" height="108" class=" "></rect><text y="15" x="0"><tspan class="title" x="44.7421875">Macro</tspan></text><line x1="0" y1="21" y2="21" x2="117.65625"></line><text x="5" y="31" fill="white" class="classText"><tspan x="5">string __doc__</tspan><tspan x="5" dy="10">string __name__</tspan><tspan x="5" dy="10">boolean __defmacro__</tspan><tspan x="5" dy="10">Function __fn__</tspan></text><line x1="0" y1="67" y2="67" x2="117.65625"></line><text x="5" y="82" fill="white" class="classText"><tspan x="5">defmacro()</tspan><tspan x="5" dy="10">invoke()</tspan><tspan x="5" dy="10">toString()</tspan></text></g><g id="classid-Syntax-14" class="classGroup" transform="translate(1093.390625,338.5 )"><rect x="0" y="0" width="58" height="57" class=" "></rect><text y="15" x="0"><tspan class="title" x="13.171875">Syntax</tspan></text><line x1="0" y1="21" y2="21" x2="58"></line><text x="5" y="31" fill="white" class="classText"></text><line x1="0" y1="26" y2="26" x2="58"></line><text x="5" y="41" fill="white" class="classText"><tspan x="5">invoke()</tspan><tspan x="5" dy="10">toString()</tspan></text></g><g id="classid-String-15" class="classGroup" transform="translate(1245.109375,89 )"><rect x="0" y="0" width="37.265625" height="30" class=" "></rect><text y="15" x="0"><tspan class="title" x="5">String</tspan></text><line x1="0" y1="21" y2="21" x2="37.265625"></line><text x="5" y="31" fill="white" class="classText"></text><line x1="0" y1="26" y2="26" x2="37.265625"></line><text x="5" y="41" fill="white" class="classText"></text></g><g id="classid-LString-16" class="classGroup" transform="translate(1201.390625,298 )"><rect x="0" y="0" width="124.703125" height="138" class=" "></rect><text y="15" x="0"><tspan class="title" x="45.953125">LString</tspan></text><line x1="0" y1="21" y2="21" x2="124.703125"></line><text x="5" y="31" fill="white" class="classText"><tspan x="5">string __string__</tspan><tspan x="5" dy="10">number length</tspan></text><line x1="0" y1="47" y2="47" x2="124.703125"></line><text x="5" y="62" fill="white" class="classText"><tspan x="5">toString()</tspan><tspan x="5" dy="10">get(number)</tspan><tspan x="5" dy="10">cmp(string)</tspan><tspan x="5" dy="10">lower()</tspan><tspan x="5" dy="10">upper()</tspan><tspan x="5" dy="10">set(number, LCharacter)</tspan><tspan x="5" dy="10">clone()</tspan><tspan x="5" dy="10">fill(LCharacter)</tspan></text></g><g id="classid-Formatter-17" class="classGroup" transform="translate(1377.9921875,60 )"><rect x="0" y="0" width="152.984375" height="88" class=" "></rect><text y="15" x="0"><tspan class="title" x="52.5390625">Formatter</tspan></text><line x1="0" y1="21" y2="21" x2="152.984375"></line><text x="5" y="31" fill="white" class="classText"><tspan x="5">string __code__</tspan></text><line x1="0" y1="37" y2="37" x2="152.984375"></line><text x="5" y="52" fill="white" class="classText"><tspan x="5">indent(object)</tspan><tspan x="5" dy="10">exception_shift(token, object)</tspan><tspan x="5" dy="10">break()</tspan><tspan x="5" dy="10">format()</tspan></text></g><g id="classid-Ahead-18" class="classGroup" transform="translate(1382.64453125,352 )"><rect x="0" y="0" width="39.34375" height="30" class=" "></rect><text y="15" x="0"><tspan class="title" x="5">Ahead</tspan></text><line x1="0" y1="21" y2="21" x2="39.34375"></line><text x="5" y="31" fill="white" class="classText"></text><line x1="0" y1="26" y2="26" x2="39.34375"></line><text x="5" y="41" fill="white" class="classText"></text></g><g id="classid-Pattern-19" class="classGroup" transform="translate(1471.98828125,341.5 )"><rect x="0" y="0" width="69.328125" height="51" class=" "></rect><text y="15" x="0"><tspan class="title" x="17.3203125">Pattern</tspan></text><line x1="0" y1="21" y2="21" x2="69.328125"></line><text x="5" y="31" fill="white" class="classText"><tspan x="5">rule pattern</tspan><tspan x="5" dy="10">string flag</tspan></text><line x1="0" y1="47" y2="47" x2="69.328125"></line><text x="5" y="62" fill="white" class="classText"></text></g><g id="classid-Interpreter-20" class="classGroup" transform="translate(1601.359375,60 )"><rect x="0" y="0" width="192.171875" height="88" class=" "></rect><text y="15" x="0"><tspan class="title" x="69.46875">Interpreter</tspan></text><line x1="0" y1="21" y2="21" x2="192.171875"></line><text x="5" y="31" fill="white" class="classText"><tspan x="5">Environment __env__</tspan></text><line x1="0" y1="37" y2="37" x2="192.171875"></line><text x="5" y="52" fill="white" class="classText"><tspan x="5">get(symbol)</tspan><tspan x="5" dy="10">set(symbol, value)</tspan><tspan x="5" dy="10">constant(name, value)</tspan><tspan x="5" dy="10">exec(code, dynamic = false, env = null)</tspan></text></g><g id="classid-Environment-21" class="classGroup" transform="translate(1623.1015625,258 )"><rect x="0" y="0" width="148.6875" height="218" class=" "></rect><text y="15" x="0"><tspan class="title" x="44.21875">Environment</tspan></text><line x1="0" y1="21" y2="21" x2="148.6875"></line><text x="5" y="31" fill="white" class="classText"><tspan x="5">string __name__</tspan><tspan x="5" dy="10">Map __docs__</tspan><tspan x="5" dy="10">Object __env__</tspan><tspan x="5" dy="10">Environment __parent__</tspan></text><line x1="0" y1="67" y2="67" x2="148.6875"></line><text x="5" y="82" fill="white" class="classText"><tspan x="5">list()</tspan><tspan x="5" dy="10">uset(name)</tspan><tspan x="5" dy="10">inherit(name, object)</tspan><tspan x="5" dy="10">doc(name, value = null)</tspan><tspan x="5" dy="10">get(symbol, options)</tspan><tspan x="5" dy="10">set(symbol, value, doc = null)</tspan><tspan x="5" dy="10">constant(name, value)</tspan><tspan x="5" dy="10">has(string)</tspan><tspan x="5" dy="10">ref(string)</tspan><tspan x="5" dy="10">parents()</tspan><tspan x="5" dy="10">newFrame(Function, args)</tspan><tspan x="5" dy="10">clone()</tspan><tspan x="5" dy="10">merge()</tspan><tspan x="5" dy="10">toString()</tspan></text></g><g id="classid-Worker-22" class="classGroup" transform="translate(1843.53125,65 )"><rect x="0" y="0" width="116.25" height="78" class=" "></rect><text y="15" x="0"><tspan class="title" x="40.7109375">Worker</tspan></text><line x1="0" y1="21" y2="21" x2="116.25"></line><text x="5" y="31" fill="white" class="classText"><tspan x="5">string url</tspan><tspan x="5" dy="10">Worker worker</tspan></text><line x1="0" y1="47" y2="47" x2="116.25"></line><text x="5" y="62" fill="white" class="classText"><tspan x="5">rpc(method, params)</tspan><tspan x="5" dy="10">exec(code, [dynamic])</tspan></text></g><g id="classid-LCharacter-23" class="classGroup" transform="translate(2009.78125,55 )"><rect x="0" y="0" width="89.453125" height="98" class=" "></rect><text y="15" x="0"><tspan class="title" x="18.7109375">LCharacter</tspan></text><line x1="0" y1="21" y2="21" x2="89.453125"></line><text x="5" y="31" fill="white" class="classText"><tspan x="5">string __name__</tspan><tspan x="5" dy="10">string __char__</tspan></text><line x1="0" y1="47" y2="47" x2="89.453125"></line><text x="5" y="62" fill="white" class="classText"><tspan x="5">toUpperCase()</tspan><tspan x="5" dy="10">toLowerCase()</tspan><tspan x="5" dy="10">toString()</tspan><tspan x="5" dy="10">valueOf()</tspan></text></g><g id="classid-LSymbol-24" class="classGroup" transform="translate(2149.234375,83.5 )"><rect x="0" y="0" width="89.453125" height="41" class=" "></rect><text y="15" x="0"><tspan class="title" x="25.203125">LSymbol</tspan></text><line x1="0" y1="21" y2="21" x2="89.453125"></line><text x="5" y="31" fill="white" class="classText"><tspan x="5">string __name__</tspan></text><line x1="0" y1="37" y2="37" x2="89.453125"></line><text x="5" y="52" fill="white" class="classText"></text></g><g id="classid-Values-25" class="classGroup" transform="translate(2288.6875,70 )"><rect x="0" y="0" width="90.8125" height="68" class=" "></rect><text y="15" x="0"><tspan class="title" x="30.546875">Values</tspan></text><line x1="0" y1="21" y2="21" x2="90.8125"></line><text x="5" y="31" fill="white" class="classText"><tspan x="5">any[] __values__</tspan></text><line x1="0" y1="37" y2="37" x2="90.8125"></line><text x="5" y="52" fill="white" class="classText"><tspan x="5">valueOf()</tspan><tspan x="5" dy="10">toString()</tspan></text></g><g id="classid-QuotedPromise-26" class="classGroup" transform="translate(2429.5,65 )"><rect x="0" y="0" width="110.25" height="78" class=" "></rect><text y="15" x="0"><tspan class="title" x="19.1953125">QuotedPromise</tspan></text><line x1="0" y1="21" y2="21" x2="110.25"></line><text x="5" y="31" fill="white" class="classText"><tspan x="5">Promise __promise__</tspan></text><line x1="0" y1="37" y2="37" x2="110.25"></line><text x="5" y="52" fill="white" class="classText"><tspan x="5">then()</tspan><tspan x="5" dy="10">catch()</tspan><tspan x="5" dy="10">valueOf()</tspan></text></g><g id="classid-Pair-27" class="classGroup" transform="translate(2589.75,20 )"><rect x="0" y="0" width="105.328125" height="168" class=" "></rect><text y="15" x="0"><tspan class="title" x="43.3046875">Pair</tspan></text><line x1="0" y1="21" y2="21" x2="105.328125"></line><text x="5" y="31" fill="white" class="classText"><tspan x="5">any car</tspan><tspan x="5" dy="10">any cdr</tspan></text><line x1="0" y1="47" y2="47" x2="105.328125"></line><text x="5" y="62" fill="white" class="classText"><tspan x="5">flatten()</tspan><tspan x="5" dy="10">length()</tspan><tspan x="5" dy="10">find(any)</tspan><tspan x="5" dy="10">clone()</tspan><tspan x="5" dy="10">lastPair()</tspan><tspan x="5" dy="10">toArray()</tspan><tspan x="5" dy="10">toObject()</tspan><tspan x="5" dy="10">reduce(Function)</tspan><tspan x="5" dy="10">reverse()</tspan><tspan x="5" dy="10">transform(Function)</tspan><tspan x="5" dy="10">map(Function)</tspan></text></g><path d="M190.140625,129.70790887944173L164.14453125,146.92325739953478C138.1484375,164.13860591962782,86.15625,198.56930295981388,60.16015625,231.61798481324027C34.1640625,264.6666666666667,34.1640625,296.3333333333333,34.1640625,312.1666666666667L34.1640625,328" id="edge0" class="relation" marker-start="url(#extensionStart)"></path><path d="M190.140625,179.32326674500587L185.52994791666666,188.26938895417155C180.91927083333334,197.21551116333725,171.69791666666666,215.1077555816686,167.08723958333334,234.05387779083432C162.4765625,253,162.4765625,273,162.4765625,283L162.4765625,293" id="edge1" class="relation" marker-start="url(#extensionStart)"></path><path d="M267.78125,179.32326674500587L272.3919270833333,188.26938895417155C277.0026041666667,197.21551116333725,286.2239583333333,215.1077555816686,290.8346354166667,240.72054445750098C295.4453125,266.3333333333333,295.4453125,299.6666666666667,295.4453125,316.3333333333333L295.4453125,333" id="edge2" class="relation" marker-start="url(#extensionStart)"></path><path d="M267.78125,128.93682163003308L294.78125,146.28068469169423C321.78125,163.6245477533554,375.78125,198.31227387667772,402.78125,223.9894702716722C429.78125,249.66666666666666,429.78125,266.3333333333333,429.78125,274.6666666666667L429.78125,283" id="edge3" class="relation" marker-start="url(#extensionStart)"></path><path d="M565.7890625,168L565.7890625,178.83333333333334C565.7890625,189.66666666666666,565.7890625,211.33333333333334,565.7890625,242C565.7890625,272.6666666666667,565.7890625,312.3333333333333,565.7890625,332.1666666666667L565.7890625,352" id="edge4" class="relation" marker-start="url(#extensionStart)"></path><path d="M565.7890625,382L565.7890625,401.8333333333333C565.7890625,421.6666666666667,565.7890625,461.3333333333333,565.7890625,485.3333333333333C565.7890625,509.3333333333333,565.7890625,517.6666666666666,565.7890625,521.8333333333334L565.7890625,526" id="edge5" class="relation" marker-start="url(#extensionStart)"></path><path d="M752.2736343265503,137.5L743.7084973554587,153.41666666666666C735.1433603843669,169.33333333333334,718.0130864421835,201.16666666666666,709.4479494710918,236C700.8828125,270.8333333333333,700.8828125,308.6666666666667,700.8828125,327.5833333333333L700.8828125,346.5" id="edge6" class="relation" marker-start="url(#extensionStart)"></path><path d="M788.3279281734497,137.5L796.8930651445413,153.41666666666666C805.4582021156331,169.33333333333334,822.5884760578165,201.16666666666666,831.1536130289082,235.16666666666666C839.71875,269.1666666666667,839.71875,305.3333333333333,839.71875,323.4166666666667L839.71875,341.5" id="edge7" class="relation" marker-start="url(#extensionStart)"></path><path d="M969.875,124.5L969.875,142.58333333333334C969.875,160.66666666666666,969.875,196.83333333333334,969.875,233.83333333333334C969.875,270.8333333333333,969.875,308.6666666666667,969.875,327.5833333333333L969.875,346.5" id="edge8" class="relation" marker-start="url(#compositionStart)"></path><path d="M1122.390625,158L1122.390625,170.5C1122.390625,183,1122.390625,208,1122.390625,238.08333333333334C1122.390625,268.1666666666667,1122.390625,303.3333333333333,1122.390625,320.9166666666667L1122.390625,338.5" id="edge9" class="relation" marker-start="url(#extensionStart)"></path><path d="M1263.7421875,119L1263.7421875,138C1263.7421875,157,1263.7421875,195,1263.7421875,224.83333333333334C1263.7421875,254.66666666666666,1263.7421875,276.3333333333333,1263.7421875,287.1666666666667L1263.7421875,298" id="edge10" class="relation" marker-start="url(#extensionStart)"></path><path d="M1436.6906492248063,148L1430.961608729005,162.16666666666666C1425.2325682332041,176.33333333333334,1413.7744872416022,204.66666666666666,1408.045446745801,238.66666666666666C1402.31640625,272.6666666666667,1402.31640625,312.3333333333333,1402.31640625,332.1666666666667L1402.31640625,352" id="edge11" class="relation" marker-start="url(#compositionStart)"></path><path d="M1472.2781007751937,148L1478.007141270995,162.16666666666666C1483.7361817667959,176.33333333333334,1495.1942627583978,204.66666666666666,1500.923303254199,236.91666666666666C1506.65234375,269.1666666666667,1506.65234375,305.3333333333333,1506.65234375,323.4166666666667L1506.65234375,341.5" id="edge12" class="relation" marker-start="url(#compositionStart)"></path><path d="M1697.4453125,148L1697.4453125,162.16666666666666C1697.4453125,176.33333333333334,1697.4453125,204.66666666666666,1697.4453125,223C1697.4453125,241.33333333333334,1697.4453125,249.66666666666666,1697.4453125,253.83333333333334L1697.4453125,258" id="edge13" class="relation" marker-start="url(#compositionStart)"></path></svg>