<svg id="mermaid-1610562107700" width="100%" xmlns="http://www.w3.org/2000/svg" xmlns:xlink="http://www.w3.org/1999/xlink" height="556" style="max-width: 2713.34375px;" viewBox="-20 -20 2713.34375 556"><style>#mermaid-1610562107700{font-family:"trebuchet ms",verdana,arial,sans-serif;font-size:16px;fill:#333;}#mermaid-1610562107700 .error-icon{fill:#552222;}#mermaid-1610562107700 .error-text{fill:#552222;stroke:#552222;}#mermaid-1610562107700 .edge-thickness-normal{stroke-width:2px;}#mermaid-1610562107700 .edge-thickness-thick{stroke-width:3.5px;}#mermaid-1610562107700 .edge-pattern-solid{stroke-dasharray:0;}#mermaid-1610562107700 .edge-pattern-dashed{stroke-dasharray:3;}#mermaid-1610562107700 .edge-pattern-dotted{stroke-dasharray:2;}#mermaid-1610562107700 .marker{fill:#333333;}#mermaid-1610562107700 .marker.cross{stroke:#333333;}#mermaid-1610562107700 svg{font-family:"trebuchet ms",verdana,arial,sans-serif;font-size:16px;}#mermaid-1610562107700 g.classGroup text{fill:#9370DB;fill:#131300;stroke:none;font-family:"trebuchet ms",verdana,arial,sans-serif;font-size:10px;}#mermaid-1610562107700 g.classGroup text .title{font-weight:bolder;}#mermaid-1610562107700 .classTitle{font-weight:bolder;}#mermaid-1610562107700 .node rect,#mermaid-1610562107700 .node circle,#mermaid-1610562107700 .node ellipse,#mermaid-1610562107700 .node polygon,#mermaid-1610562107700 .node path{fill:#ECECFF;stroke:#9370DB;stroke-width:1px;}#mermaid-1610562107700 .divider{stroke:#9370DB;stroke:1;}#mermaid-1610562107700 g.clickable{cursor:pointer;}#mermaid-1610562107700 g.classGroup rect{fill:#ECECFF;stroke:#9370DB;}#mermaid-1610562107700 g.classGroup line{stroke:#9370DB;stroke-width:1;}#mermaid-1610562107700 .classLabel .box{stroke:none;stroke-width:0;fill:#ECECFF;opacity:0.5;}#mermaid-1610562107700 .classLabel .label{fill:#9370DB;font-size:10px;}#mermaid-1610562107700 .relation{stroke:#333333;stroke-width:1;fill:none;}#mermaid-1610562107700 .dashed-line{stroke-dasharray:3;}#mermaid-1610562107700 #compositionStart,#mermaid-1610562107700 .composition{fill:#333333 !important;stroke:#333333 !important;stroke-width:1;}#mermaid-1610562107700 #compositionEnd,#mermaid-1610562107700 .composition{fill:#333333 !important;stroke:#333333 !important;stroke-width:1;}#mermaid-1610562107700 #dependencyStart,#mermaid-1610562107700 .dependency{fill:#333333 !important;stroke:#333333 !important;stroke-width:1;}#mermaid-1610562107700 #dependencyStart,#mermaid-1610562107700 .dependency{fill:#333333 !important;stroke:#333333 !important;stroke-width:1;}#mermaid-1610562107700 #extensionStart,#mermaid-1610562107700 .extension{fill:#333333 !important;stroke:#333333 !important;stroke-width:1;}#mermaid-1610562107700 #extensionEnd,#mermaid-1610562107700 .extension{fill:#333333 !important;stroke:#333333 !important;stroke-width:1;}#mermaid-1610562107700 #aggregationStart,#mermaid-1610562107700 .aggregation{fill:#ECECFF !important;stroke:#333333 !important;stroke-width:1;}#mermaid-1610562107700 #aggregationEnd,#mermaid-1610562107700 .aggregation{fill:#ECECFF !important;stroke:#333333 !important;stroke-width:1;}#mermaid-1610562107700 .edgeTerminals{font-size:11px;}#mermaid-1610562107700:root{--mermaid-font-family:"trebuchet ms",verdana,arial,sans-serif;}#mermaid-1610562107700 class{fill:apa;}</style><g></g><defs><marker id="extensionStart" class="extension" refX="0" refY="7" markerWidth="190" markerHeight="240" orient="auto"><path d="M 1,7 L18,13 V 1 Z"></path></marker></defs><defs><marker id="extensionEnd" refX="19" refY="7" markerWidth="20" markerHeight="28" orient="auto"><path d="M 1,1 V 13 L18,7 Z"></path></marker></defs><defs><marker id="compositionStart" class="extension" refX="0" refY="7" markerWidth="190" markerHeight="240" orient="auto"><path d="M 18,7 L9,13 L1,7 L9,1 Z"></path></marker></defs><defs><marker id="compositionEnd" refX="19" refY="7" markerWidth="20" markerHeight="28" orient="auto"><path d="M 18,7 L9,13 L1,7 L9,1 Z"></path></marker></defs><defs><marker id="aggregationStart" class="extension" refX="0" refY="7" markerWidth="190" markerHeight="240" orient="auto"><path d="M 18,7 L9,13 L1,7 L9,1 Z"></path></marker></defs><defs><marker id="aggregationEnd" refX="19" refY="7" markerWidth="20" markerHeight="28" orient="auto"><path d="M 18,7 L9,13 L1,7 L9,1 Z"></path></marker></defs><defs><marker id="dependencyStart" class="extension" refX="0" refY="7" markerWidth="190" markerHeight="240" orient="auto"><path d="M 5,7 L9,13 L1,7 L9,1 Z"></path></marker></defs><defs><marker id="dependencyEnd" refX="19" refY="7" markerWidth="20" markerHeight="28" orient="auto"><path d="M 18,7 L9,13 L14,7 L9,1 Z"></path></marker></defs><g id="classid-LNumber-0" class="classGroup" transform="translate(190.140625,15 )"><rect x="0" y="0" width="77.640625" height="138" class=" "></rect><text y="15" x="0"><tspan class="title" x="17.1796875">LNumber</tspan></text><line x1="0" y1="21" y2="21" x2="77.640625"></line><text x="5" y="31" fill="white" class="classText"><tspan x="5">Number value</tspan></text><line x1="0" y1="37" y2="37" x2="77.640625"></line><text x="5" y="52" fill="white" class="classText"><tspan x="5">isFloat()</tspan><tspan x="5" dy="10">isNumber()</tspan><tspan x="5" dy="10">isComplex()</tspan><tspan x="5" dy="10">isRational()</tspan><tspan x="5" dy="10">isNative()</tspan><tspan x="5" dy="10">isBigInteger()</tspan><tspan x="5" dy="10">isBN()</tspan><tspan x="5" dy="10">getType()</tspan><tspan x="5" dy="10">coerce()</tspan></text></g><g id="classid-LBigInteger-1" class="classGroup" transform="translate(0,306.5 )"><rect x="0" y="0" width="68.328125" height="41" class=" "></rect><text y="15" x="0"><tspan class="title" x="7.3359375">LBigInteger</tspan></text><line x1="0" y1="21" y2="21" x2="68.328125"></line><text x="5" y="31" fill="white" class="classText"><tspan x="5">BigInt value</tspan></text><line x1="0" y1="37" y2="37" x2="68.328125"></line><text x="5" y="52" fill="white" class="classText"></text></g><g id="classid-LRational-2" class="classGroup" transform="translate(118.328125,301.5 )"><rect x="0" y="0" width="88.296875" height="51" class=" "></rect><text y="15" x="0"><tspan class="title" x="22.2421875">LRational</tspan></text><line x1="0" y1="21" y2="21" x2="88.296875"></line><text x="5" y="31" fill="white" class="classText"><tspan x="5">LNumber num</tspan><tspan x="5" dy="10">LNumber denom</tspan></text><line x1="0" y1="47" y2="47" x2="88.296875"></line><text x="5" y="62" fill="white" class="classText"></text></g><g id="classid-LFloat-3" class="classGroup" transform="translate(256.625,306.5 )"><rect x="0" y="0" width="77.640625" height="41" class=" "></rect><text y="15" x="0"><tspan class="title" x="24.1640625">LFloat</tspan></text><line x1="0" y1="21" y2="21" x2="77.640625"></line><text x="5" y="31" fill="white" class="classText"><tspan x="5">Number value</tspan></text><line x1="0" y1="37" y2="37" x2="77.640625"></line><text x="5" y="52" fill="white" class="classText"></text></g><g id="classid-LComplex-4" class="classGroup" transform="translate(384.265625,301.5 )"><rect x="0" y="0" width="69.296875" height="51" class=" "></rect><text y="15" x="0"><tspan class="title" x="11.4375">LComplex</tspan></text><line x1="0" y1="21" y2="21" x2="69.296875"></line><text x="5" y="31" fill="white" class="classText"><tspan x="5">LNumber im</tspan><tspan x="5" dy="10">LNumber re</tspan></text><line x1="0" y1="47" y2="47" x2="69.296875"></line><text x="5" y="62" fill="white" class="classText"></text></g><g id="classid-InputPort-5" class="classGroup" transform="translate(502.953125,20 )"><rect x="0" y="0" width="82.203125" height="128" class=" "></rect><text y="15" x="0"><tspan class="title" x="19.2421875">InputPort</tspan></text><line x1="0" y1="21" y2="21" x2="82.203125"></line><text x="5" y="31" fill="white" class="classText"><tspan x="5">Function _read</tspan></text><line x1="0" y1="37" y2="37" x2="82.203125"></line><text x="5" y="52" fill="white" class="classText"><tspan x="5">read_char()</tspan><tspan x="5" dy="10">skip_char()</tspan><tspan x="5" dy="10">read_line()</tspan><tspan x="5" dy="10">read()</tspan><tspan x="5" dy="10">char_ready()</tspan><tspan x="5" dy="10">is_open()</tspan><tspan x="5" dy="10">close()</tspan><tspan x="5" dy="10">toString()</tspan></text></g><g id="classid-InputStringPort-6" class="classGroup" transform="translate(503.5625,312 )"><rect x="0" y="0" width="80.984375" height="30" class=" "></rect><text y="15" x="0"><tspan class="title" x="5">InputStringPort</tspan></text><line x1="0" y1="21" y2="21" x2="80.984375"></line><text x="5" y="31" fill="white" class="classText"></text><line x1="0" y1="26" y2="26" x2="80.984375"></line><text x="5" y="41" fill="white" class="classText"></text></g><g id="classid-InputFilePort-7" class="classGroup" transform="translate(508.4375,486 )"><rect x="0" y="0" width="71.234375" height="30" class=" "></rect><text y="15" x="0"><tspan class="title" x="5">InputFilePort</tspan></text><line x1="0" y1="21" y2="21" x2="71.234375"></line><text x="5" y="31" fill="white" class="classText"></text><line x1="0" y1="26" y2="26" x2="71.234375"></line><text x="5" y="41" fill="white" class="classText"></text></g><g id="classid-OutputPort-8" class="classGroup" transform="translate(717.59765625,50.5 )"><rect x="0" y="0" width="61.9375" height="67" class=" "></rect><text y="15" x="0"><tspan class="title" x="5">OutputPort</tspan></text><line x1="0" y1="21" y2="21" x2="61.9375"></line><text x="5" y="31" fill="white" class="classText"></text><line x1="0" y1="26" y2="26" x2="61.9375"></line><text x="5" y="41" fill="white" class="classText"><tspan x="5">is_open()</tspan><tspan x="5" dy="10">close()</tspan><tspan x="5" dy="10">toString()</tspan></text></g><g id="classid-OutputStringPort-9" class="classGroup" transform="translate(634.546875,306.5 )"><rect x="0" y="0" width="89.203125" height="41" class=" "></rect><text y="15" x="0"><tspan class="title" x="5">OutputStringPort</tspan></text><line x1="0" y1="21" y2="21" x2="89.203125"></line><text x="5" y="31" fill="white" class="classText"><tspan x="5">string[] _buffer</tspan></text><line x1="0" y1="37" y2="37" x2="89.203125"></line><text x="5" y="52" fill="white" class="classText"></text></g><g id="classid-OutputFilePort-10" class="classGroup" transform="translate(773.75,301.5 )"><rect x="0" y="0" width="88.46875" height="51" class=" "></rect><text y="15" x="0"><tspan class="title" x="9.5078125">OutputFilePort</tspan></text><line x1="0" y1="21" y2="21" x2="88.46875"></line><text x="5" y="31" fill="white" class="classText"><tspan x="5">string _filename</tspan><tspan x="5" dy="10">number _fd</tspan></text><line x1="0" y1="47" y2="47" x2="88.46875"></line><text x="5" y="62" fill="white" class="classText"></text></g><g id="classid-Parser-11" class="classGroup" transform="translate(904.453125,63.5 )"><rect x="0" y="0" width="87.375" height="41" class=" "></rect><text y="15" x="0"><tspan class="title" x="28.65625">Parser</tspan></text><line x1="0" y1="21" y2="21" x2="87.375"></line><text x="5" y="31" fill="white" class="classText"><tspan x="5">Lexer __lexer__</tspan></text><line x1="0" y1="37" y2="37" x2="87.375"></line><text x="5" y="52" fill="white" class="classText"></text></g><g id="classid-Lexer-12" class="classGroup" transform="translate(912.21875,306.5 )"><rect x="0" y="0" width="71.84375" height="41" class=" "></rect><text y="15" x="0"><tspan class="title" x="22.1484375">Lexer</tspan></text><line x1="0" y1="21" y2="21" x2="71.84375"></line><text x="5" y="31" fill="white" class="classText"><tspan x="5">string _input</tspan></text><line x1="0" y1="37" y2="37" x2="71.84375"></line><text x="5" y="52" fill="white" class="classText"></text></g><g id="classid-Macro-13" class="classGroup" transform="translate(1041.828125,30 )"><rect x="0" y="0" width="117.65625" height="108" class=" "></rect><text y="15" x="0"><tspan class="title" x="44.7421875">Macro</tspan></text><line x1="0" y1="21" y2="21" x2="117.65625"></line><text x="5" y="31" fill="white" class="classText"><tspan x="5">string __doc__</tspan><tspan x="5" dy="10">string __name__</tspan><tspan x="5" dy="10">boolean __defmacro__</tspan><tspan x="5" dy="10">Function __fn__</tspan></text><line x1="0" y1="67" y2="67" x2="117.65625"></line><text x="5" y="82" fill="white" class="classText"><tspan x="5">defmacro()</tspan><tspan x="5" dy="10">invoke()</tspan><tspan x="5" dy="10">toString()</tspan></text></g><g id="classid-Syntax-14" class="classGroup" transform="translate(1071.65625,298.5 )"><rect x="0" y="0" width="58" height="57" class=" "></rect><text y="15" x="0"><tspan class="title" x="13.171875">Syntax</tspan></text><line x1="0" y1="21" y2="21" x2="58"></line><text x="5" y="31" fill="white" class="classText"></text><line x1="0" y1="26" y2="26" x2="58"></line><text x="5" y="41" fill="white" class="classText"><tspan x="5">invoke()</tspan><tspan x="5" dy="10">toString()</tspan></text></g><g id="classid-String-15" class="classGroup" transform="translate(1223.375,69 )"><rect x="0" y="0" width="37.265625" height="30" class=" "></rect><text y="15" x="0"><tspan class="title" x="5">String</tspan></text><line x1="0" y1="21" y2="21" x2="37.265625"></line><text x="5" y="31" fill="white" class="classText"></text><line x1="0" y1="26" y2="26" x2="37.265625"></line><text x="5" y="41" fill="white" class="classText"></text></g><g id="classid-LString-16" class="classGroup" transform="translate(1179.65625,258 )"><rect x="0" y="0" width="124.703125" height="138" class=" "></rect><text y="15" x="0"><tspan class="title" x="45.953125">LString</tspan></text><line x1="0" y1="21" y2="21" x2="124.703125"></line><text x="5" y="31" fill="white" class="classText"><tspan x="5">string __string__</tspan><tspan x="5" dy="10">number length</tspan></text><line x1="0" y1="47" y2="47" x2="124.703125"></line><text x="5" y="62" fill="white" class="classText"><tspan x="5">toString()</tspan><tspan x="5" dy="10">get(number)</tspan><tspan x="5" dy="10">cmp(string)</tspan><tspan x="5" dy="10">lower()</tspan><tspan x="5" dy="10">upper()</tspan><tspan x="5" dy="10">set(number, LCharacter)</tspan><tspan x="5" dy="10">clone()</tspan><tspan x="5" dy="10">fill(LCharacter)</tspan></text></g><g id="classid-Formatter-17" class="classGroup" transform="translate(1356.2578125,40 )"><rect x="0" y="0" width="152.984375" height="88" class=" "></rect><text y="15" x="0"><tspan class="title" x="52.5390625">Formatter</tspan></text><line x1="0" y1="21" y2="21" x2="152.984375"></line><text x="5" y="31" fill="white" class="classText"><tspan x="5">string __code__</tspan></text><line x1="0" y1="37" y2="37" x2="152.984375"></line><text x="5" y="52" fill="white" class="classText"><tspan x="5">indent(object)</tspan><tspan x="5" dy="10">exception_shift(token, object)</tspan><tspan x="5" dy="10">break()</tspan><tspan x="5" dy="10">format()</tspan></text></g><g id="classid-Ahead-18" class="classGroup" transform="translate(1360.91015625,312 )"><rect x="0" y="0" width="39.34375" height="30" class=" "></rect><text y="15" x="0"><tspan class="title" x="5">Ahead</tspan></text><line x1="0" y1="21" y2="21" x2="39.34375"></line><text x="5" y="31" fill="white" class="classText"></text><line x1="0" y1="26" y2="26" x2="39.34375"></line><text x="5" y="41" fill="white" class="classText"></text></g><g id="classid-Pattern-19" class="classGroup" transform="translate(1450.25390625,301.5 )"><rect x="0" y="0" width="69.328125" height="51" class=" "></rect><text y="15" x="0"><tspan class="title" x="17.3203125">Pattern</tspan></text><line x1="0" y1="21" y2="21" x2="69.328125"></line><text x="5" y="31" fill="white" class="classText"><tspan x="5">rule pattern</tspan><tspan x="5" dy="10">string flag</tspan></text><line x1="0" y1="47" y2="47" x2="69.328125"></line><text x="5" y="62" fill="white" class="classText"></text></g><g id="classid-Interpreter-20" class="classGroup" transform="translate(1579.625,40 )"><rect x="0" y="0" width="192.171875" height="88" class=" "></rect><text y="15" x="0"><tspan class="title" x="69.46875">Interpreter</tspan></text><line x1="0" y1="21" y2="21" x2="192.171875"></line><text x="5" y="31" fill="white" class="classText"><tspan x="5">Environment __env__</tspan></text><line x1="0" y1="37" y2="37" x2="192.171875"></line><text x="5" y="52" fill="white" class="classText"><tspan x="5">get(symbol)</tspan><tspan x="5" dy="10">set(symbol, value)</tspan><tspan x="5" dy="10">constant(name, value)</tspan><tspan x="5" dy="10">exec(code, dynamic = false, env = null)</tspan></text></g><g id="classid-Environment-21" class="classGroup" transform="translate(1601.3671875,218 )"><rect x="0" y="0" width="148.6875" height="218" class=" "></rect><text y="15" x="0"><tspan class="title" x="44.21875">Environment</tspan></text><line x1="0" y1="21" y2="21" x2="148.6875"></line><text x="5" y="31" fill="white" class="classText"><tspan x="5">string __name__</tspan><tspan x="5" dy="10">Map __docs__</tspan><tspan x="5" dy="10">Object __env__</tspan><tspan x="5" dy="10">Environment __parent__</tspan></text><line x1="0" y1="67" y2="67" x2="148.6875"></line><text x="5" y="82" fill="white" class="classText"><tspan x="5">list()</tspan><tspan x="5" dy="10">uset(name)</tspan><tspan x="5" dy="10">inherit(name, object)</tspan><tspan x="5" dy="10">doc(name, value = null)</tspan><tspan x="5" dy="10">get(symbol, options)</tspan><tspan x="5" dy="10">set(symbol, value, doc = null)</tspan><tspan x="5" dy="10">constant(name, value)</tspan><tspan x="5" dy="10">has(string)</tspan><tspan x="5" dy="10">ref(string)</tspan><tspan x="5" dy="10">parents()</tspan><tspan x="5" dy="10">newFrame(Function, args)</tspan><tspan x="5" dy="10">clone()</tspan><tspan x="5" dy="10">merge()</tspan><tspan x="5" dy="10">toString()</tspan></text></g><g id="classid-Worker-22" class="classGroup" transform="translate(1821.796875,45 )"><rect x="0" y="0" width="116.25" height="78" class=" "></rect><text y="15" x="0"><tspan class="title" x="40.7109375">Worker</tspan></text><line x1="0" y1="21" y2="21" x2="116.25"></line><text x="5" y="31" fill="white" class="classText"><tspan x="5">string url</tspan><tspan x="5" dy="10">Worker worker</tspan></text><line x1="0" y1="47" y2="47" x2="116.25"></line><text x="5" y="62" fill="white" class="classText"><tspan x="5">rpc(method, params)</tspan><tspan x="5" dy="10">exec(code, [dynamic])</tspan></text></g><g id="classid-LCharacter-23" class="classGroup" transform="translate(1988.046875,35 )"><rect x="0" y="0" width="89.453125" height="98" class=" "></rect><text y="15" x="0"><tspan class="title" x="18.7109375">LCharacter</tspan></text><line x1="0" y1="21" y2="21" x2="89.453125"></line><text x="5" y="31" fill="white" class="classText"><tspan x="5">string __name__</tspan><tspan x="5" dy="10">string __char__</tspan></text><line x1="0" y1="47" y2="47" x2="89.453125"></line><text x="5" y="62" fill="white" class="classText"><tspan x="5">toUpperCase()</tspan><tspan x="5" dy="10">toLowerCase()</tspan><tspan x="5" dy="10">toString()</tspan><tspan x="5" dy="10">valueOf()</tspan></text></g><g id="classid-LSymbol-24" class="classGroup" transform="translate(2127.5,63.5 )"><rect x="0" y="0" width="89.453125" height="41" class=" "></rect><text y="15" x="0"><tspan class="title" x="25.203125">LSymbol</tspan></text><line x1="0" y1="21" y2="21" x2="89.453125"></line><text x="5" y="31" fill="white" class="classText"><tspan x="5">string __name__</tspan></text><line x1="0" y1="37" y2="37" x2="89.453125"></line><text x="5" y="52" fill="white" class="classText"></text></g><g id="classid-Values-25" class="classGroup" transform="translate(2266.953125,50 )"><rect x="0" y="0" width="90.8125" height="68" class=" "></rect><text y="15" x="0"><tspan class="title" x="30.546875">Values</tspan></text><line x1="0" y1="21" y2="21" x2="90.8125"></line><text x="5" y="31" fill="white" class="classText"><tspan x="5">any[] __values__</tspan></text><line x1="0" y1="37" y2="37" x2="90.8125"></line><text x="5" y="52" fill="white" class="classText"><tspan x="5">valueOf()</tspan><tspan x="5" dy="10">toString()</tspan></text></g><g id="classid-QuotedPromise-26" class="classGroup" transform="translate(2407.765625,45 )"><rect x="0" y="0" width="110.25" height="78" class=" "></rect><text y="15" x="0"><tspan class="title" x="19.1953125">QuotedPromise</tspan></text><line x1="0" y1="21" y2="21" x2="110.25"></line><text x="5" y="31" fill="white" class="classText"><tspan x="5">Promise __promise__</tspan></text><line x1="0" y1="37" y2="37" x2="110.25"></line><text x="5" y="52" fill="white" class="classText"><tspan x="5">then()</tspan><tspan x="5" dy="10">catch()</tspan><tspan x="5" dy="10">valueOf()</tspan></text></g><g id="classid-Pair-27" class="classGroup" transform="translate(2568.015625,0 )"><rect x="0" y="0" width="105.328125" height="168" class=" "></rect><text y="15" x="0"><tspan class="title" x="43.3046875">Pair</tspan></text><line x1="0" y1="21" y2="21" x2="105.328125"></line><text x="5" y="31" fill="white" class="classText"><tspan x="5">any car</tspan><tspan x="5" dy="10">any cdr</tspan></text><line x1="0" y1="47" y2="47" x2="105.328125"></line><text x="5" y="62" fill="white" class="classText"><tspan x="5">flatten()</tspan><tspan x="5" dy="10">length()</tspan><tspan x="5" dy="10">find(any)</tspan><tspan x="5" dy="10">clone()</tspan><tspan x="5" dy="10">lastPair()</tspan><tspan x="5" dy="10">toArray()</tspan><tspan x="5" dy="10">toObject()</tspan><tspan x="5" dy="10">reduce(Function)</tspan><tspan x="5" dy="10">reverse()</tspan><tspan x="5" dy="10">transform(Function)</tspan><tspan x="5" dy="10">map(Function)</tspan></text></g><path d="M190.140625,105.72218657255154L164.14453125,120.2684888104596C138.1484375,134.8147910483677,86.15625,163.90739552418384,60.16015625,197.37036442875856C34.1640625,230.83333333333334,34.1640625,268.6666666666667,34.1640625,287.5833333333333L34.1640625,306.5" id="edge0" class="relation" marker-start="url(#extensionStart)"></path><path d="M190.140625,147.64524089306698L185.52994791666666,155.20436741088915C180.91927083333334,162.7634939287113,171.69791666666666,177.88174696435567,167.08723958333334,203.52420681551118C162.4765625,229.16666666666666,162.4765625,265.3333333333333,162.4765625,283.4166666666667L162.4765625,301.5" id="edge1" class="relation" marker-start="url(#extensionStart)"></path><path d="M267.78125,147.64524089306698L272.3919270833333,155.20436741088915C277.0026041666667,162.7634939287113,286.2239583333333,177.88174696435567,290.8346354166667,204.3575401488445C295.4453125,230.83333333333334,295.4453125,268.6666666666667,295.4453125,287.5833333333333L295.4453125,306.5" id="edge2" class="relation" marker-start="url(#extensionStart)"></path><path d="M267.78125,106.27609607633462L292.9700520833333,120.73008006361219C318.1588541666667,135.18406405088976,368.5364583333333,164.09203202544487,393.7252604166667,196.62934934605576C418.9140625,229.16666666666666,418.9140625,265.3333333333333,418.9140625,283.4166666666667L418.9140625,301.5" id="edge3" class="relation" marker-start="url(#extensionStart)"></path><path d="M544.0546875,148L544.0546875,155.5C544.0546875,163,544.0546875,178,544.0546875,205.33333333333334C544.0546875,232.66666666666666,544.0546875,272.3333333333333,544.0546875,292.1666666666667L544.0546875,312" id="edge4" class="relation" marker-start="url(#extensionStart)"></path><path d="M544.0546875,342L544.0546875,361.8333333333333C544.0546875,381.6666666666667,544.0546875,421.3333333333333,544.0546875,445.3333333333333C544.0546875,469.3333333333333,544.0546875,477.6666666666667,544.0546875,481.8333333333333L544.0546875,486" id="edge5" class="relation" marker-start="url(#extensionStart)"></path><path d="M727.2315259461009,117.5L719.2176778717508,130.08333333333334C711.2038297974005,142.66666666666666,695.1761336487003,167.83333333333334,687.1622855743502,199.33333333333334C679.1484375,230.83333333333334,679.1484375,268.6666666666667,679.1484375,287.5833333333333L679.1484375,306.5" id="edge6" class="relation" marker-start="url(#extensionStart)"></path><path d="M769.9012865538991,117.5L777.9151346282492,130.08333333333334C785.9289827025995,142.66666666666666,801.9566788512997,167.83333333333334,809.9705269256498,198.5C817.984375,229.16666666666666,817.984375,265.3333333333333,817.984375,283.4166666666667L817.984375,301.5" id="edge7" class="relation" marker-start="url(#extensionStart)"></path><path d="M948.140625,104.5L948.140625,119.25C948.140625,134,948.140625,163.5,948.140625,197.16666666666666C948.140625,230.83333333333334,948.140625,268.6666666666667,948.140625,287.5833333333333L948.140625,306.5" id="edge8" class="relation" marker-start="url(#compositionStart)"></path><path d="M1100.65625,138L1100.65625,147.16666666666666C1100.65625,156.33333333333334,1100.65625,174.66666666666666,1100.65625,201.41666666666666C1100.65625,228.16666666666666,1100.65625,263.3333333333333,1100.65625,280.9166666666667L1100.65625,298.5" id="edge9" class="relation" marker-start="url(#extensionStart)"></path><path d="M1242.0078125,99L1242.0078125,114.66666666666667C1242.0078125,130.33333333333334,1242.0078125,161.66666666666666,1242.0078125,188.16666666666666C1242.0078125,214.66666666666666,1242.0078125,236.33333333333334,1242.0078125,247.16666666666666L1242.0078125,258" id="edge10" class="relation" marker-start="url(#extensionStart)"></path><path d="M1411.691370412844,128L1406.50648055237,138.83333333333334C1401.3215906918958,149.66666666666666,1390.951810970948,171.33333333333334,1385.766921110474,202C1380.58203125,232.66666666666666,1380.58203125,272.3333333333333,1380.58203125,292.1666666666667L1380.58203125,312" id="edge11" class="relation" marker-start="url(#compositionStart)"></path><path d="M1453.808629587156,128L1458.99351944763,138.83333333333334C1464.1784093081042,149.66666666666666,1474.548189029052,171.33333333333334,1479.733078889526,200.25C1484.91796875,229.16666666666666,1484.91796875,265.3333333333333,1484.91796875,283.4166666666667L1484.91796875,301.5" id="edge12" class="relation" marker-start="url(#compositionStart)"></path><path d="M1675.7109375,128L1675.7109375,138.83333333333334C1675.7109375,149.66666666666666,1675.7109375,171.33333333333334,1675.7109375,186.33333333333334C1675.7109375,201.33333333333334,1675.7109375,209.66666666666666,1675.7109375,213.83333333333334L1675.7109375,218" id="edge13" class="relation" marker-start="url(#compositionStart)"></path></svg>