<?xml version="1.0" encoding="UTF-8" standalone="no"?>
<!DOCTYPE svg PUBLIC "-//W3C//DTD SVG 1.0//EN" "http://www.w3.org/TR/2001/PR-SVG-20010719/DTD/svg10.dtd">
<svg width="30cm" height="16cm" viewBox="-1 -3 588 316" xmlns="http://www.w3.org/2000/svg" xmlns:xlink="http://www.w3.org/1999/xlink">
  <g>
    <rect style="fill: #ffffff" x="303" y="176" width="62" height="39"/>
    <rect style="fill: none; fill-opacity:0; stroke-width: 2; stroke: #000000" x="303" y="176" width="62" height="39"/>
    <text font-size="12.7998" style="fill: #000000;text-anchor:middle;font-family:sans-serif;font-style:normal;font-weight:normal" x="334" y="199.462">
      <tspan x="334" y="199.462">Parser</tspan>
    </text>
  </g>
  <text font-size="12.7998" style="fill: #000000;text-anchor:start;font-family:sans-serif;font-style:normal;font-weight:normal" x="334" y="195.5">
    <tspan x="334" y="195.5"></tspan>
  </text>
  <text font-size="12.7998" style="fill: #000000;text-anchor:start;font-family:sans-serif;font-style:normal;font-weight:normal" x="354.5" y="216.5">
    <tspan x="354.5" y="216.5"></tspan>
  </text>
  <text font-size="12.7998" style="fill: #000000;text-anchor:start;font-family:sans-serif;font-style:normal;font-weight:normal" x="354.5" y="216.5">
    <tspan x="354.5" y="216.5"></tspan>
  </text>
  <text font-size="12.7998" style="fill: #000000;text-anchor:start;font-family:sans-serif;font-style:normal;font-weight:normal" x="354.5" y="216.5">
    <tspan x="354.5" y="216.5"></tspan>
  </text>
  <text font-size="12.7998" style="fill: #000000;text-anchor:start;font-family:sans-serif;font-style:normal;font-weight:normal" x="354.5" y="216.5">
    <tspan x="354.5" y="216.5"></tspan>
  </text>
  <text font-size="12.7998" style="fill: #000000;text-anchor:start;font-family:sans-serif;font-style:normal;font-weight:normal" x="354.5" y="216.5">
    <tspan x="354.5" y="216.5"></tspan>
  </text>
  <g>
    <rect style="fill: #ffffff" x="303.1" y="274.1" width="62" height="38"/>
    <rect style="fill: none; fill-opacity:0; stroke-width: 2; stroke: #000000" x="303.1" y="274.1" width="62" height="38"/>
    <text font-size="12.7998" style="fill: #000000;text-anchor:middle;font-family:sans-serif;font-style:normal;font-weight:normal" x="334.1" y="297.062">
      <tspan x="334.1" y="297.062">Lexer</tspan>
    </text>
  </g>
  <g>
    <rect style="fill: #ffffff" x="450.798" y="60.4773" width="135.45" height="38"/>
    <rect style="fill: none; fill-opacity:0; stroke-width: 2; stroke: #000000" x="450.798" y="60.4773" width="135.45" height="38"/>
    <text font-size="12.7998" style="fill: #000000;text-anchor:middle;font-family:sans-serif;font-style:normal;font-weight:normal" x="518.523" y="83.4396">
      <tspan x="518.523" y="83.4396">Character Stream</tspan>
    </text>
  </g>
  <g>
    <rect style="fill: #ffffff" x="302.272" y="57.7404" width="62.2263" height="45.9414"/>
    <rect style="fill: none; fill-opacity:0; stroke-width: 2; stroke: #000000" x="302.272" y="57.7404" width="62.2263" height="45.9414"/>
    <text font-size="12.7998" style="fill: #000000;text-anchor:middle;font-family:sans-serif;font-style:normal;font-weight:normal" x="333.385" y="84.6734">
      <tspan x="333.385" y="84.6734">exec</tspan>
    </text>
  </g>
  <g>
    <rect style="fill: #ffffff" x="105.502" y="59.4222" width="80.9692" height="42.5778"/>
    <rect style="fill: none; fill-opacity:0; stroke-width: 2; stroke: #000000" x="105.502" y="59.4222" width="80.9692" height="42.5778"/>
    <text font-size="12.7998" style="fill: #000000;text-anchor:middle;font-family:sans-serif;font-style:normal;font-weight:normal" x="145.987" y="84.6734">
      <tspan x="145.987" y="84.6734">evaluate</tspan>
    </text>
  </g>
  <g>
    <line style="fill: none; fill-opacity:0; stroke-width: 2; stroke: #000000" x1="372.668" y1="80.2983" x2="450.798" y2="79.4773"/>
    <polygon style="fill: #000000" points="365.497,80.3737 370.444,75.3214 375.497,80.2686 370.549,85.3208 "/>
    <polygon style="fill: none; fill-opacity:0; stroke-width: 2; stroke: #000000" points="365.497,80.3737 370.444,75.3214 375.497,80.2686 370.549,85.3208 "/>
  </g>
  <g>
    <line style="fill: none; fill-opacity:0; stroke-width: 2; stroke: #000000" x1="348.941" y1="103.682" x2="349.425" y2="166.264"/>
    <polygon style="fill: #000000" points="349.483,173.764 344.406,163.803 349.425,166.264 354.405,163.726 "/>
    <polygon style="fill: none; fill-opacity:0; stroke-width: 2; stroke: #000000" points="349.483,173.764 344.406,163.803 349.425,166.264 354.405,163.726 "/>
  </g>
  <g>
    <line style="fill: none; fill-opacity:0; stroke-width: 2; stroke: #000000" x1="334" y1="215" x2="334.084" y2="264.364"/>
    <polygon style="fill: #000000" points="334.096,271.864 329.079,261.872 334.084,264.364 339.079,261.855 "/>
    <polygon style="fill: none; fill-opacity:0; stroke-width: 2; stroke: #000000" points="334.096,271.864 329.079,261.872 334.084,264.364 339.079,261.855 "/>
  </g>
  <g>
    <line style="fill: none; fill-opacity:0; stroke-width: 2; stroke: #000000" x1="318.5" y1="176" x2="317.919" y2="113.417"/>
    <polygon style="fill: #000000" points="317.849,105.918 322.942,115.871 317.919,113.417 312.942,115.964 "/>
    <polygon style="fill: none; fill-opacity:0; stroke-width: 2; stroke: #000000" points="317.849,105.918 322.942,115.871 317.919,113.417 312.942,115.964 "/>
  </g>
  <g>
    <line style="fill: none; fill-opacity:0; stroke-width: 2; stroke: #000000" x1="302.272" y1="92.1964" x2="196.207" y2="91.4262"/>
    <polygon style="fill: #000000" points="188.707,91.3718 198.743,86.4445 196.207,91.4262 198.671,96.4443 "/>
    <polygon style="fill: none; fill-opacity:0; stroke-width: 2; stroke: #000000" points="188.707,91.3718 198.743,86.4445 196.207,91.4262 198.671,96.4443 "/>
  </g>
  <g>
    <polyline style="fill: none; fill-opacity:0; stroke-width: 2; stroke-dasharray: 4; stroke: #000000" points="372.272,293.1 518.523,293.1 518.523,98.4773 "/>
    <polygon style="fill: #000000" points="365.1,293.1 370.1,288.1 375.1,293.1 370.1,298.1 "/>
    <polygon style="fill: none; fill-opacity:0; stroke-width: 2; stroke: #000000" points="365.1,293.1 370.1,288.1 375.1,293.1 370.1,298.1 "/>
  </g>
  <g>
    <rect style="fill: #ffffff" x="104.149" y="167.716" width="84.75" height="54"/>
    <rect style="fill: none; fill-opacity:0; stroke-width: 2; stroke: #000000" x="104.149" y="167.716" width="84.75" height="54"/>
    <text font-size="12.7998" style="fill: #000000;text-anchor:middle;font-family:sans-serif;font-style:normal;font-weight:normal" x="146.524" y="190.678">
      <tspan x="146.524" y="190.678">Syntax</tspan>
      <tspan x="146.524" y="206.678">Extension</tspan>
    </text>
  </g>
  <g>
    <line style="fill: none; fill-opacity:0; stroke-width: 2; stroke: #000000" x1="145.987" y1="102" x2="146.445" y2="157.98"/>
    <polygon style="fill: #000000" points="146.506,165.48 141.424,155.521 146.445,157.98 151.424,155.439 "/>
    <polygon style="fill: none; fill-opacity:0; stroke-width: 2; stroke: #000000" points="146.506,165.48 141.424,155.521 146.445,157.98 151.424,155.439 "/>
  </g>
  <g>
    <line style="fill: none; fill-opacity:0; stroke-width: 2; stroke: #000000" x1="188.899" y1="194.716" x2="293.264" y2="195.433"/>
    <polygon style="fill: #000000" points="300.764,195.485 290.73,200.416 293.264,195.433 290.799,190.416 "/>
    <polygon style="fill: none; fill-opacity:0; stroke-width: 2; stroke: #000000" points="300.764,195.485 290.73,200.416 293.264,195.433 290.799,190.416 "/>
  </g>
  <g>
    <rect style="fill: #ffffff" x="450.398" y="-1.71334" width="130.21" height="38"/>
    <rect style="fill: none; fill-opacity:0; stroke-width: 2; stroke: #000000" x="450.398" y="-1.71334" width="130.21" height="38"/>
    <text font-size="12.7998" style="fill: #000000;text-anchor:middle;font-family:sans-serif;font-style:normal;font-weight:normal" x="515.503" y="21.249">
      <tspan x="515.503" y="21.249">Environment</tspan>
    </text>
  </g>
  <g>
    <polyline style="fill: none; fill-opacity:0; stroke-width: 2; stroke: #000000" points="450.398,26.7867 334.226,25.7864 333.573,50.5713 "/>
    <polygon style="fill: #000000" points="333.385,57.7404 328.518,52.6106 333.648,47.7439 338.515,52.8737 "/>
    <polygon style="fill: none; fill-opacity:0; stroke-width: 2; stroke: #000000" points="333.385,57.7404 328.518,52.6106 333.648,47.7439 338.515,52.8737 "/>
  </g>
  <g>
    <polyline style="fill: none; fill-opacity:0; stroke-width: 2; stroke-dasharray: 4; stroke: #000000" points="450.398,7.78666 148.388,8.12755 146.322,52.2585 "/>
    <polygon style="fill: #000000" points="145.987,59.4222 141.226,54.1939 146.454,49.4331 151.215,54.6615 "/>
    <polygon style="fill: none; fill-opacity:0; stroke-width: 2; stroke: #000000" points="145.987,59.4222 141.226,54.1939 146.454,49.4331 151.215,54.6615 "/>
  </g>
  <g>
    <rect style="fill: #ffffff" x="0.390062" y="59.4222" width="57.8249" height="41.6134"/>
    <rect style="fill: none; fill-opacity:0; stroke-width: 2; stroke: #000000" x="0.390062" y="59.4222" width="57.8249" height="41.6134"/>
    <text font-size="12.7998" style="fill: #000000;text-anchor:middle;font-family:sans-serif;font-style:normal;font-weight:normal" x="29.3025" y="84.1912">
      <tspan x="29.3025" y="84.1912">apply</tspan>
    </text>
  </g>
  <g>
    <line style="fill: none; fill-opacity:0; stroke-width: 2; stroke: #000000" x1="105.502" y1="70.0666" x2="67.9509" y2="69.8752"/>
    <polygon style="fill: #000000" points="60.451,69.837 70.4763,64.888 67.9509,69.8752 70.4253,74.8879 "/>
    <polygon style="fill: none; fill-opacity:0; stroke-width: 2; stroke: #000000" points="60.451,69.837 70.4763,64.888 67.9509,69.8752 70.4253,74.8879 "/>
  </g>
  <g>
    <line style="fill: none; fill-opacity:0; stroke-width: 2; stroke: #000000" x1="58.2149" y1="90.6323" x2="95.7671" y2="91.2067"/>
    <polygon style="fill: #000000" points="103.266,91.3214 93.1909,96.1678 95.7671,91.2067 93.3439,86.169 "/>
    <polygon style="fill: none; fill-opacity:0; stroke-width: 2; stroke: #000000" points="103.266,91.3214 93.1909,96.1678 95.7671,91.2067 93.3439,86.169 "/>
  </g>
  <g>
    <line style="fill: none; fill-opacity:0; stroke-width: 2; stroke: #000000" x1="186.471" y1="70.0666" x2="292.536" y2="69.2964"/>
    <polygon style="fill: #000000" points="300.036,69.242 290.072,74.3145 292.536,69.2964 290,64.3147 "/>
    <polygon style="fill: none; fill-opacity:0; stroke-width: 2; stroke: #000000" points="300.036,69.242 290.072,74.3145 292.536,69.2964 290,64.3147 "/>
  </g>
</svg>
