<?xml version="1.0" encoding="UTF-8" standalone="no"?>
<svg xmlns:dc="http://purl.org/dc/elements/1.1/" xmlns:cc="http://creativecommons.org/ns#" xmlns:rdf="http://www.w3.org/1999/02/22-rdf-syntax-ns#" xmlns:svg="http://www.w3.org/2000/svg" xmlns="http://www.w3.org/2000/svg" width="132.29167mm" height="52.916668mm" viewBox="0 0 132.29167 52.916668" version="1.1" id="svg8">
  <defs id="defs2" />
  <metadata id="metadata5">
    <rdf:RDF>
      <cc:Work rdf:about="">
        <dc:format>image/svg+xml</dc:format>
        <dc:type rdf:resource="http://purl.org/dc/dcmitype/StillImage" />
        <dc:title></dc:title>
      </cc:Work>
    </rdf:RDF>
  </metadata>
  <g id="layer1" transform="matrix(3.3333333,0,0,3.3333333,-71.500498,-235.30754)">
    <rect style="opacity:1;vector-effect:none;fill:#ffffff;fill-opacity:1;stroke:none;stroke-width:0.40000001;stroke-linecap:round;stroke-linejoin:miter;stroke-miterlimit:4;stroke-dasharray:none;stroke-dashoffset:0;stroke-opacity:1" id="rect821" width="39.6875" height="15.875" x="21.45015" y="70.592262" rx="0" ry="0" />
    <path style="font-style:normal;font-variant:normal;font-weight:normal;font-stretch:normal;font-size:11.70623207px;line-height:1.25;font-family:Telegrafico;-inkscape-font-specification:Telegrafico;letter-spacing:0px;word-spacing:0px;fill:#000000;fill-opacity:1;stroke:none;stroke-width:0.92181188" d="m 29.861328,52.78125 c -1.680673,0 -3.082676,0.891163 -4.203125,2.671875 -1.120451,1.760706 -1.709512,4.111559 -1.769531,7.052734 h 1.080078 c 0.100039,-1.820727 0.569821,-3.16114 1.410156,-4.021484 0.860347,-0.880353 1.861499,-1.320313 3.001953,-1.320313 1.420571,0 2.60993,0.859391 3.570313,2.580079 0.960383,1.720687 1.780665,4.37169 2.460937,7.953125 l -12.84375,27.671875 h 5.671875 l 8.94336,-20.289063 2.582031,11.646484 c 0.920368,4.141657 1.960628,6.691959 3.121094,7.652344 1.160463,0.940374 2.370356,1.410156 3.630859,1.410156 1.540616,0 2.821388,-0.719581 3.841797,-2.160156 1.040418,-1.440574 1.560547,-3.741076 1.560547,-6.902344 h -1.080078 c -0.300122,3.161268 -1.571603,4.740235 -3.8125,4.740235 -1.320527,0 -2.461492,-0.65994 -3.421875,-1.980469 -0.940377,-1.340538 -1.840828,-3.980299 -2.701172,-7.921875 L 38.773438,72.050781 C 37.272839,65.288075 36.163649,60.83617 35.443359,58.695312 34.743078,56.534448 33.902267,55.013165 32.921875,54.132812 31.961492,53.232453 30.941762,52.78125 29.861328,52.78125 Z m -14.367187,7.021484 c -2.040068,2.723709 -3.54681,5.457719 -4.523438,8.203125 -0.835558,2.365612 -1.2539061,4.841192 -1.2539061,7.423829 0,2.929879 0.5580871,5.761537 1.6757811,8.496093 1.117697,2.734559 2.484701,5.122044 4.101563,7.16211 h 2.099609 c -3.244573,-5.208678 -4.865234,-10.423046 -4.865234,-15.642579 0,-2.050917 0.232608,-4.089927 0.699218,-6.11914 0.379803,-1.627714 0.900567,-3.191957 1.5625,-4.689453 0.423207,-0.965775 1.290496,-2.576889 2.603516,-4.833985 z m 119.054689,0 c 1.32389,2.278798 2.19595,3.906185 2.61914,4.882813 0.66194,1.497497 1.17793,3.061739 1.54687,4.689453 0.46662,2.007509 0.69922,4.030244 0.69922,6.070312 0,5.219533 -1.62065,10.433901 -4.86523,15.642579 h 2.09961 c 1.60601,-2.040066 2.96824,-4.427551 4.08594,-7.16211 1.12853,-2.734556 1.6914,-5.566214 1.6914,-8.496093 0,-2.582637 -0.41639,-5.058217 -1.25195,-7.423829 -0.97661,-2.745406 -2.48532,-5.479416 -4.52539,-8.203125 z m -70.443361,6.96875 V 86.457031 H 77.208984 V 83.166016 H 67.367188 V 66.771484 Z m 18.796875,0 v 19.685547 h 3.261718 V 66.771484 Z m 8.929687,0 v 19.685547 h 3.261719 v -6.552734 h 6.58008 c 1.79635,0 3.33724,-0.633491 4.62305,-1.900391 1.28581,-1.304715 1.92968,-2.854036 1.92968,-4.65039 0,-1.81526 -0.64387,-3.366534 -1.92968,-4.652344 -1.28581,-1.285808 -2.8267,-1.929688 -4.62305,-1.929688 z m 27.765629,0 c -1.60727,0 -2.95797,0.568587 -4.05469,1.703125 -1.11563,1.115626 -1.67383,2.4579 -1.67383,4.027344 0,1.607264 0.5582,2.968356 1.67383,4.083985 1.11563,1.115628 2.46633,1.673828 4.05469,1.673828 h 4.9082 c 0.68072,0 1.25579,0.244692 1.72852,0.736328 0.49163,0.491633 0.73828,1.068656 0.73828,1.730468 0,0.340362 -0.0669,0.662303 -0.19922,0.964844 -0.11347,0.302556 -0.28287,0.568024 -0.50977,0.794922 -0.22691,0.208 -0.49238,0.377407 -0.79492,0.509766 -0.30254,0.113461 -0.62253,0.169922 -0.96289,0.169922 h -10.63672 v 3.291015 h 10.63672 c 1.58835,0 2.93906,-0.558197 4.05469,-1.673828 1.13453,-1.134538 1.70312,-2.487199 1.70312,-4.056641 0,-1.588354 -0.56859,-2.939059 -1.70312,-4.054687 -1.11563,-1.115628 -2.46634,-1.673828 -4.05469,-1.673828 h -4.9082 c -0.69964,0 -1.2851,-0.246645 -1.75782,-0.738281 -0.47272,-0.491631 -0.70898,-1.07709 -0.70898,-1.757813 0,-0.321451 0.0565,-0.633003 0.16992,-0.935547 0.13238,-0.302553 0.31217,-0.568024 0.53906,-0.794922 0.22691,-0.226897 0.49238,-0.396304 0.79493,-0.509765 0.30254,-0.132359 0.62252,-0.199219 0.96289,-0.199219 h 10.66601 V 66.771484 Z M 95.09375,70.0625 h 6.58008 c 0.88872,0 1.65397,0.321939 2.29687,0.964844 0.64291,0.642905 0.96485,1.418543 0.96485,2.326172 0,0.88872 -0.32194,1.653969 -0.96485,2.296875 -0.6429,0.642905 -1.40815,0.964843 -2.29687,0.964843 h -6.58008 z" transform="matrix(0.26458333,0,0,0.26458333,21.166668,58.875004)" id="path823" />
  </g>
</svg>
