<?xml version="1.0" standalone="no"?>
<!DOCTYPE svg PUBLIC "-//W3C//DTD SVG 20010904//EN"
 "http://www.w3.org/TR/2001/REC-SVG-20010904/DTD/svg10.dtd">
<svg version="1.0" xmlns="http://www.w3.org/2000/svg"
 width="700.000000pt" height="700.000000pt" viewBox="0 0 700.000000 700.000000"
 preserveAspectRatio="xMidYMid meet">
<metadata>
Created by potrace 1.11, written by Peter Selinger 2001-2013
</metadata>
<g transform="translate(0.000000,700.000000) scale(0.100000,-0.100000)"
fill="#000000" stroke="none">
<path d="M1215 6473 c-105 -26 -292 -316 -579 -898 -216 -438 -342 -768 -422
-1099 -27 -116 -28 -120 -44 -206 -6 -30 -12 -66 -15 -80 -13 -60 -45 -308
-52 -398 -14 -182 -8 -570 12 -732 1 -14 6 -50 9 -80 4 -30 9 -62 11 -70 2 -8
7 -35 10 -60 5 -38 48 -260 60 -310 81 -341 237 -736 475 -1205 253 -498 429
-771 520 -807 79 -31 179 16 211 98 19 52 10 89 -56 215 -317 602 -512 1085
-625 1543 -21 88 -41 173 -44 189 -5 28 -23 126 -30 162 -2 11 -7 45 -12 75
-4 30 -8 57 -9 60 -2 8 -18 143 -21 180 -25 274 -25 725 1 915 3 17 9 68 15
115 82 649 306 1288 736 2100 49 93 55 110 51 151 -9 99 -104 166 -202 142z"/>
<path d="M5685 6468 c-63 -22 -105 -81 -105 -147 0 -29 15 -68 55 -143 288
-542 491 -1028 603 -1443 27 -99 59 -228 66 -266 2 -7 6 -32 11 -54 9 -45 11
-57 25 -135 15 -86 19 -114 25 -156 2 -21 7 -55 9 -74 36 -256 42 -755 11
-1012 -2 -18 -6 -58 -10 -88 -3 -30 -10 -80 -15 -110 -5 -30 -12 -73 -15 -95
-14 -84 -17 -103 -41 -215 -33 -157 -102 -413 -131 -490 -3 -8 -7 -20 -9 -27
-4 -21 -95 -264 -140 -374 -95 -236 -255 -568 -408 -851 -67 -125 -34 -226 86
-263 88 -26 160 27 285 213 135 199 417 740 543 1042 29 69 60 143 70 165 85
197 185 538 235 805 3 14 7 36 10 50 3 14 7 39 9 55 4 29 9 68 22 158 21 149
28 271 28 487 1 180 -9 387 -20 444 -2 10 -6 44 -10 75 -7 70 -49 303 -70 396
-33 144 -90 330 -158 520 -35 97 -41 111 -64 165 -6 14 -39 88 -72 165 -68
154 -263 548 -304 613 -14 23 -26 46 -26 52 0 6 -11 27 -24 48 -13 20 -49 82
-82 137 -188 322 -268 395 -389 353z"/>
<path d="M2610 3500 l0 -1340 890 0 890 0 0 225 0 225 -670 0 -669 0 0 1078
c0 592 0 1094 0 1115 l-1 37 -220 0 -220 0 0 -1340z"/>
</g>
</svg>
