<?xml version="1.0" encoding="UTF-8" standalone="no"?>
<svg xmlns:dc="http://purl.org/dc/elements/1.1/" xmlns:cc="http://creativecommons.org/ns#" xmlns:rdf="http://www.w3.org/1999/02/22-rdf-syntax-ns#" xmlns:svg="http://www.w3.org/2000/svg" xmlns="http://www.w3.org/2000/svg" width="84.666382mm" height="30.042114mm" viewBox="0 0 84.666383 30.042114" version="1.1" id="svg1073">
  <defs id="defs1067">
    <filter style="color-interpolation-filters:sRGB" id="filter6500" x="-0.02383337" width="1.0476667" y="-0.073542506" height="1.147085">
      <feGaussianBlur stdDeviation="1.1622934" id="feGaussianBlur6502" />
    </filter>
  </defs>
  <metadata id="metadata1070">
    <rdf:RDF>
      <cc:Work rdf:about="">
        <dc:format>image/svg+xml</dc:format>
        <dc:type rdf:resource="http://purl.org/dc/dcmitype/StillImage" />
        <dc:title></dc:title>
      </cc:Work>
    </rdf:RDF>
  </metadata>
  <g id="layer1" transform="translate(-42.239038,-69.517479)">
    <g id="g6506" transform="matrix(0.69047244,0,0,0.69047244,100.28344,53.073877)">
      <path id="path823" d="m -64.567236,25.546171 c -1.482261,0 -2.718749,0.785956 -3.706923,2.356445 -0.988176,1.552845 -1.507695,3.626167 -1.560628,6.22012 h 0.952569 c 0.08823,-1.60578 0.50255,-2.78795 1.243679,-3.546726 0.758778,-0.776422 1.641739,-1.164442 2.647556,-1.164442 1.252864,0 2.301813,0.757935 3.148817,2.275486 0.847005,1.51755 1.570448,3.855587 2.17041,7.014214 L -70.99923,63.106321 h 5.002279 l 7.887546,-17.893823 2.277208,10.271551 c 0.811713,3.652712 1.729165,5.901932 2.752632,6.748942 1.023463,0.82936 2.090522,1.24368 3.202215,1.24368 1.358738,0 2.488308,-0.63463 3.388252,-1.90514 0.917591,-1.2705 1.376315,-3.29942 1.376315,-6.087482 h -0.952568 c -0.264691,2.788062 -1.386067,4.180622 -3.362413,4.180622 -1.164632,0 -2.1709,-0.58203 -3.017904,-1.74666 -0.82936,-1.182281 -1.623508,-3.510404 -2.382284,-6.986655 l -1.879299,-8.39053 c -1.323445,-5.964331 -2.301689,-9.890663 -2.936944,-11.778781 -0.617609,-1.905762 -1.359158,-3.247449 -2.223809,-4.023872 -0.847004,-0.794066 -1.74635,-1.192002 -2.699232,-1.192002 z m -12.671061,6.192559 c -1.799226,2.40216 -3.128089,4.813404 -3.989421,7.2347 -0.736915,2.086338 -1.105875,4.269662 -1.105875,6.547404 0,2.583991 0.492202,5.081356 1.477946,7.493082 0.985746,2.411729 2.191368,4.517355 3.61735,6.316585 h 1.851739 c -2.861533,-4.593766 -4.290866,-9.192549 -4.290866,-13.795887 0,-1.808795 0.205147,-3.607088 0.616671,-5.396741 0.334965,-1.435554 0.79425,-2.815129 1.378038,-4.135837 0.373245,-0.85176 1.138146,-2.272673 2.296157,-4.263306 z m 104.999619,0 c 1.167597,2.009773 1.936706,3.445038 2.309936,4.306369 0.583794,1.320709 1.038869,2.700284 1.364253,4.135837 0.411533,1.770511 0.616673,3.554451 0.616673,5.353678 0,4.603338 -1.429323,9.202121 -4.290862,13.795887 h 1.851739 c 1.416412,-1.79923 2.617823,-3.904856 3.603572,-6.316585 0.995301,-2.411726 1.491721,-4.909091 1.491721,-7.493082 0,-2.277742 -0.367233,-4.461066 -1.10415,-6.547404 -0.861316,-2.421296 -2.191914,-4.83254 -3.991143,-7.2347 z m -62.127129,6.14605 v 17.361558 h 11.556572 v -2.902492 h -8.679917 V 37.88478 Z m 16.577799,0 v 17.361558 h 2.876654 V 37.88478 Z m 7.8754864,0 v 17.361558 h 2.8766552 v -5.779147 h 5.8032648 c 1.58428087,0 2.9432602,-0.558704 4.0772732,-1.676039 1.1340129,-1.150686 1.7018705,-2.517101 1.7018705,-4.101386 0,-1.600958 -0.5678576,-2.969096 -1.7018705,-4.103109 C 1.7106586,38.452646 0.35167927,37.88478 -1.2326016,37.88478 Z m 24.4877426,0 c -1.417523,0 -2.608765,0.501462 -3.576011,1.502061 -0.983924,0.98392 -1.476226,2.167732 -1.476226,3.551894 0,1.417517 0.492302,2.617925 1.476226,3.601848 0.983923,0.983922 2.175166,1.476223 3.576011,1.476223 h 4.328759 c 0.600358,0 1.107537,0.215805 1.524459,0.6494 0.43359,0.433593 0.651122,0.942496 0.651122,1.526177 0,0.30018 -0.059,0.584114 -0.175701,0.850939 -0.100074,0.266837 -0.249476,0.500965 -0.449589,0.701077 -0.200122,0.183444 -0.434252,0.332852 -0.701075,0.449585 -0.266824,0.100066 -0.549037,0.149862 -0.849216,0.149862 H 9.522984 v 2.902492 h 9.380996 c 1.400837,0 2.592088,-0.492299 3.576012,-1.476223 1.000592,-1.0006 1.502057,-2.193571 1.502057,-3.577732 0,-1.40084 -0.501465,-2.592087 -1.502057,-3.576009 -0.983924,-0.983922 -2.175175,-1.476223 -3.576012,-1.476223 h -4.328759 c -0.617044,0 -1.133387,-0.217527 -1.5503,-0.651123 -0.416912,-0.433591 -0.625281,-0.949933 -0.625281,-1.550293 0,-0.283502 0.04983,-0.558274 0.14986,-0.825101 0.116752,-0.266834 0.275317,-0.500965 0.475421,-0.701077 0.200122,-0.20011 0.434252,-0.349518 0.701084,-0.449584 0.266824,-0.116733 0.549028,-0.1757 0.849216,-0.1757 h 9.406828 V 37.88478 Z m -21.6110874,2.902493 h 5.8032648 c 0.78380168,0 1.45870962,0.283932 2.02571171,0.850939 0.56701089,0.567006 0.85094409,1.251076 0.85094409,2.051554 0,0.783802 -0.2839332,1.458709 -0.85094409,2.025716 -0.56700209,0.567007 -1.24191003,0.850938 -2.02571171,0.850938 h -5.8032648 z" style="font-style:normal;font-variant:normal;font-weight:normal;font-stretch:normal;font-size:11.7062px;line-height:1.25;font-family:Telegrafico;-inkscape-font-specification:Telegrafico;letter-spacing:0px;word-spacing:0px;fill:#000000;fill-opacity:1;stroke:none;stroke-width:0.812987" />
      <path style="font-style:normal;font-variant:normal;font-weight:normal;font-stretch:normal;font-size:11.7062px;line-height:1.25;font-family:Telegrafico;-inkscape-font-specification:Telegrafico;letter-spacing:0px;word-spacing:0px;opacity:0.15;fill:#000000;fill-opacity:1;stroke:none;stroke-width:0.812987;filter:url(#filter6500)" d="m -63.508902,26.604505 c -1.482261,0 -2.718749,0.785956 -3.706923,2.356445 -0.988176,1.552845 -1.507695,3.626167 -1.560628,6.22012 h 0.952569 c 0.08823,-1.60578 0.50255,-2.78795 1.243679,-3.546726 0.758778,-0.776422 1.641739,-1.164442 2.647556,-1.164442 1.252864,0 2.301813,0.757935 3.148817,2.275486 0.847005,1.51755 1.570448,3.855587 2.17041,7.014214 l -11.327474,24.405053 h 5.002279 l 7.887546,-17.893823 2.277208,10.271551 c 0.811713,3.652712 1.729165,5.901932 2.752632,6.748942 1.023463,0.82936 2.090522,1.24368 3.202215,1.24368 1.358738,0 2.488308,-0.63463 3.388252,-1.90514 0.917591,-1.2705 1.376315,-3.29942 1.376315,-6.087482 h -0.952568 c -0.264691,2.788062 -1.386067,4.180622 -3.362413,4.180622 -1.164632,0 -2.1709,-0.58203 -3.017904,-1.74666 -0.82936,-1.182281 -1.623508,-3.510404 -2.382284,-6.986655 l -1.879299,-8.39053 c -1.323445,-5.964331 -2.301689,-9.890663 -2.936944,-11.778781 -0.617609,-1.905762 -1.359158,-3.247449 -2.223809,-4.023872 -0.847004,-0.794066 -1.74635,-1.192002 -2.699232,-1.192002 z m -12.671061,6.192559 c -1.799226,2.40216 -3.128089,4.813404 -3.989421,7.2347 -0.736915,2.086338 -1.105875,4.269662 -1.105875,6.547404 0,2.583991 0.492202,5.081356 1.477946,7.493082 0.985746,2.411729 2.191368,4.517355 3.61735,6.316585 h 1.851739 c -2.861533,-4.593766 -4.290866,-9.192549 -4.290866,-13.795887 0,-1.808795 0.205147,-3.607088 0.616671,-5.396741 0.334965,-1.435554 0.79425,-2.815129 1.378038,-4.135837 0.373245,-0.85176 1.138146,-2.272673 2.296157,-4.263306 z m 104.999619,0 c 1.167597,2.009773 1.936706,3.445038 2.309936,4.306369 0.583794,1.320709 1.038869,2.700284 1.364253,4.135837 0.411533,1.770511 0.616673,3.554451 0.616673,5.353678 0,4.603338 -1.429323,9.202121 -4.290862,13.795887 h 1.851739 c 1.416412,-1.79923 2.617823,-3.904856 3.603572,-6.316585 0.995301,-2.411726 1.491721,-4.909091 1.491721,-7.493082 0,-2.277742 -0.367233,-4.461066 -1.10415,-6.547404 -0.861316,-2.421296 -2.191914,-4.83254 -3.991143,-7.2347 z m -62.127129,6.14605 v 17.361558 h 11.556572 V 53.40218 h -8.679917 V 38.943114 Z m 16.577799,0 v 17.361558 h 2.876654 V 38.943114 Z m 7.8754858,0 v 17.361558 h 2.8766552 v -5.779147 h 5.80326474 c 1.58428086,0 2.94326026,-0.558704 4.07727326,-1.676039 1.1340129,-1.150686 1.7018705,-2.517101 1.7018705,-4.101386 0,-1.600958 -0.5678576,-2.969096 -1.7018705,-4.103109 C 2.768992,39.51098 1.4100126,38.943114 -0.17426826,38.943114 Z m 24.4877432,0 c -1.417523,0 -2.608765,0.501462 -3.576011,1.502061 -0.983924,0.98392 -1.476226,2.167732 -1.476226,3.551894 0,1.417517 0.492302,2.617925 1.476226,3.601848 0.983923,0.983922 2.175166,1.476223 3.576011,1.476223 h 4.328759 c 0.600358,0 1.107537,0.215805 1.524459,0.6494 0.43359,0.433593 0.651122,0.942496 0.651122,1.526177 0,0.30018 -0.059,0.584114 -0.175701,0.850939 -0.100074,0.266837 -0.249476,0.500965 -0.449589,0.701077 -0.200122,0.183444 -0.434252,0.332852 -0.701075,0.449585 -0.266824,0.100066 -0.549037,0.149862 -0.849216,0.149862 h -9.380996 v 2.902492 h 9.380996 c 1.400837,0 2.592088,-0.492299 3.576012,-1.476223 1.000592,-1.0006 1.502057,-2.193571 1.502057,-3.577732 0,-1.40084 -0.501465,-2.592087 -1.502057,-3.576009 -0.983924,-0.983922 -2.175175,-1.476223 -3.576012,-1.476223 h -4.328759 c -0.617044,0 -1.133387,-0.217527 -1.5503,-0.651123 -0.416912,-0.433591 -0.625281,-0.949933 -0.625281,-1.550293 0,-0.283502 0.04983,-0.558274 0.14986,-0.825101 0.116752,-0.266834 0.275317,-0.500965 0.475421,-0.701077 0.200122,-0.20011 0.434252,-0.349518 0.701084,-0.449584 0.266824,-0.116733 0.549028,-0.1757 0.849216,-0.1757 h 9.406828 v -2.902493 z m -21.611088,2.902493 h 5.80326474 c 0.78380168,0 1.45870966,0.283932 2.02571176,0.850939 0.5670109,0.567006 0.8509441,1.251076 0.8509441,2.051554 0,0.783802 -0.2839332,1.458709 -0.8509441,2.025716 -0.5670021,0.567007 -1.24191008,0.850938 -2.02571176,0.850938 H -5.977533 Z" id="path6398" />
    </g>
  </g>
</svg>
