<?xml version="1.0" encoding="UTF-8" standalone="no"?>
<svg xmlns:dc="http://purl.org/dc/elements/1.1/" xmlns:cc="http://creativecommons.org/ns#" xmlns:rdf="http://www.w3.org/1999/02/22-rdf-syntax-ns#" xmlns:svg="http://www.w3.org/2000/svg" xmlns="http://www.w3.org/2000/svg" xmlns:xlink="http://www.w3.org/1999/xlink" xmlns:sodipodi="http://sodipodi.sourceforge.net/DTD/sodipodi-0.dtd" xmlns:inkscape="http://www.inkscape.org/namespaces/inkscape" width="256.64584mm" height="171.18541mm" viewBox="0 0 256.64584 171.18541" version="1.1" id="svg2306" inkscape:version="1.0.1 (3bc2e813f5, 2020-09-07)" sodipodi:docname="worker.svg">
  <defs id="defs2300">
    <filter inkscape:collect="always" style="color-interpolation-filters:sRGB" id="filter3746" x="-0.064168744" width="1.1283375" y="-0.090230271" height="1.1804605">
      <feGaussianBlur inkscape:collect="always" stdDeviation="9.6907959" id="feGaussianBlur3748" />
    </filter>
    <filter inkscape:collect="always" style="color-interpolation-filters:sRGB" id="filter3754" x="-0.043639965" width="1.0872799" y="-0.26653227" height="1.5330645">
      <feGaussianBlur inkscape:collect="always" stdDeviation="1.43395" id="feGaussianBlur3756" />
    </filter>
  </defs>
  <sodipodi:namedview id="base" pagecolor="#ffffff" bordercolor="#666666" borderopacity="1.0" inkscape:pageopacity="0.0" inkscape:pageshadow="2" inkscape:zoom="0.7" inkscape:cx="516.47894" inkscape:cy="403.53753" inkscape:document-units="mm" inkscape:current-layer="layer1" inkscape:document-rotation="0" showgrid="false" fit-margin-top="0" fit-margin-left="0" fit-margin-right="0" fit-margin-bottom="0" inkscape:window-width="1680" inkscape:window-height="968" inkscape:window-x="178" inkscape:window-y="37" inkscape:window-maximized="0" />
  <metadata id="metadata2303">
    <rdf:RDF>
      <cc:Work rdf:about="">
        <dc:format>image/svg+xml</dc:format>
        <dc:type rdf:resource="http://purl.org/dc/dcmitype/StillImage" />
        <dc:title />
      </cc:Work>
    </rdf:RDF>
  </metadata>
  <g inkscape:label="Warstwa 1" inkscape:groupmode="layer" id="layer1" transform="translate(35.713539,-40.531151)">
    <image sodipodi:absref="/home/kuba/projects/jcubic/lips/docs/img/person-with-shovel.jpg" xlink:href="person-with-shovel.jpg" inkscape:export-ydpi="89.07" inkscape:export-xdpi="89.07" width="256.64584" height="171.18541" preserveAspectRatio="none" id="image2880" x="-35.713539" y="40.531151" />
    <g id="g3771" transform="translate(1.4731474,-2.3812454)">
      <path id="path2910" style="font-style:normal;font-variant:normal;font-weight:normal;font-stretch:normal;font-size:89.0757px;line-height:1.25;font-family:'Times New Roman';-inkscape-font-specification:'Times New Roman, ';letter-spacing:0px;word-spacing:0px;opacity:0.6;fill:#000000;stroke-width:6.31245;filter:url(#filter3746)" d="m 476.44336,190.68945 c -1.58798,0 -3.06269,0.6234 -4.42383,1.8711 -4.42363,3.96993 -11.45638,15.53987 -21.09765,34.70898 -9.64128,19.16912 -16.1636,36.06913 -19.56641,50.70117 -3.40279,14.63205 -5.10352,28.4696 -5.10352,41.51368 0,14.63204 1.81566,29.15145 5.44532,43.55664 3.62965,14.40519 10.20849,30.96427 19.73632,49.67968 9.52784,18.71542 16.38915,30.00287 20.58594,33.85938 1.36114,1.2477 2.83585,1.87109 4.42383,1.87109 2.04167,0 3.74241,-0.73834 5.10352,-2.21289 1.47454,-1.36113 2.21289,-3.00535 2.21289,-4.93359 0,-1.13429 -0.39741,-2.38108 -1.19141,-3.74219 -12.47693,-22.79877 -21.38184,-43.49957 -26.71289,-62.10156 -5.33108,-18.60198 -7.99609,-37.26116 -7.99609,-55.97656 -10e-6,-18.60199 2.66501,-37.20467 7.99609,-55.80665 5.33105,-18.60198 14.23596,-39.35733 26.71289,-62.26953 0.794,-1.36112 1.19141,-2.60987 1.19141,-3.74414 0,-1.92825 -0.73835,-3.57247 -2.21289,-4.93359 -1.36111,-1.36112 -3.06185,-2.04102 -5.10352,-2.04102 z m 262.06641,0 c -2.04165,0 -3.80082,0.6799 -5.27539,2.04102 -1.36114,1.36112 -2.04102,3.00534 -2.04102,4.93359 0,1.13427 0.3974,2.38302 1.19141,3.74414 12.47692,22.9122 21.37986,43.66755 26.71093,62.26953 5.33105,18.60198 7.9961,37.26116 7.9961,55.97657 0,18.60198 -2.66505,37.20466 -7.9961,55.80664 -5.33107,18.60199 -14.23401,39.30279 -26.71093,62.10156 -0.79401,1.36111 -1.19141,2.6079 -1.19141,3.74219 0,1.92824 0.67988,3.57246 2.04102,4.93359 1.47457,1.47455 3.23374,2.21289 5.27539,2.21289 1.58798,0 3.06074,-0.68183 4.42187,-2.04297 4.42364,-3.8565 11.45638,-15.42448 21.09766,-34.70703 9.64127,-19.16911 16.16362,-36.01458 19.5664,-50.5332 3.40281,-14.63205 5.10547,-28.4696 5.10547,-41.51367 0,-14.63205 -1.81565,-29.1495 -5.44531,-43.55469 -3.62966,-14.40519 -10.20849,-30.96623 -19.73633,-49.68164 -9.52783,-18.71541 -16.3911,-30.00091 -20.58789,-33.85742 -1.36113,-1.2477 -2.83389,-1.8711 -4.42187,-1.8711 z m -171.47266,11.09766 c -9.20564,0 -16.87655,4.87529 -23.01367,14.62891 -6.1371,9.64402 -9.37045,22.52095 -9.69922,38.63086 h 5.91797 c 0.54795,-9.9728 3.12373,-17.31493 7.72656,-22.02735 4.71242,-4.82201 10.1908,-7.23242 16.4375,-7.23242 7.78096,0 14.30213,4.71188 19.5625,14.13672 5.2604,9.42484 9.75438,23.94568 13.48047,43.5625 L 527.0918,435.05078 h 31.06836 l 48.98632,-111.125 14.13868,63.78125 c 5.04118,22.68538 10.73939,36.65955 17.0957,41.91992 6.35628,5.15079 12.98639,7.72657 19.89062,7.72657 8.43853,0 15.45188,-3.94537 21.04102,-11.83594 5.69875,-7.89057 8.54883,-20.49515 8.54883,-37.81055 h -5.91797 c -1.64387,17.3154 -8.60276,25.97461 -20.87695,25.97461 -7.23304,0 -13.47987,-3.6166 -18.74024,-10.84961 -5.15079,-7.34261 -10.0825,-21.80898 -14.79492,-43.39844 l -11.67187,-52.11132 c -8.21934,-37.04182 -14.3008,-61.42609 -18.2461,-73.15235 -3.83566,-11.83585 -8.43861,-20.16432 -13.80859,-24.98633 -5.26037,-4.9316 -10.84965,-7.39648 -16.76758,-7.39648 z" transform="matrix(0.22915183,0,0,0.22915183,26.734098,10.804549)" />
      <path id="path2905" style="font-style:normal;font-variant:normal;font-weight:normal;font-stretch:normal;font-size:89.0757px;line-height:1.25;font-family:'Times New Roman';-inkscape-font-specification:'Times New Roman, ';letter-spacing:0px;word-spacing:0px;fill:#ffffff;stroke-width:1.44651" d="m 135.45366,54.043081 c -0.36389,0 -0.70182,0.142854 -1.01373,0.428766 -1.01368,0.909717 -2.62525,3.56099 -4.83456,7.953627 -2.20932,4.392639 -3.70392,8.265307 -4.48368,11.618266 -0.77976,3.352961 -1.16948,6.523861 -1.16948,9.512935 0,3.352959 0.41606,6.680108 1.2478,9.981084 0.83174,3.300976 2.3393,7.095521 4.52262,11.384191 2.18332,4.28867 3.7556,6.87521 4.7173,7.75894 0.31191,0.28591 0.64984,0.42876 1.01373,0.42876 0.46785,0 0.85758,-0.16919 1.16948,-0.50709 0.3379,-0.3119 0.50709,-0.68868 0.50709,-1.13054 0,-0.25992 -0.0911,-0.54563 -0.27301,-0.85753 -2.85911,-5.22438 -4.89969,-9.968 -6.12131,-14.230684 -1.22163,-4.262677 -1.83232,-8.538463 -1.83232,-12.827131 0,-4.26268 0.61069,-8.525518 1.83232,-12.788196 1.22162,-4.262677 3.2622,-9.018804 6.12131,-14.269176 0.18194,-0.311904 0.27301,-0.598057 0.27301,-0.857977 0,-0.441862 -0.16919,-0.818638 -0.50709,-1.130541 -0.3119,-0.311903 -0.70163,-0.467704 -1.16948,-0.467704 z m 60.053,0 c -0.46785,0 -0.87097,0.155801 -1.20887,0.467704 -0.3119,0.311903 -0.4677,0.688679 -0.4677,1.130541 0,0.25992 0.0911,0.546073 0.27301,0.857977 2.85911,5.250372 4.89924,10.006499 6.12086,14.269176 1.22162,4.262678 1.83232,8.538463 1.83232,12.827134 0,4.262678 -0.6107,8.525516 -1.83232,12.788193 -1.22162,4.262684 -3.26175,9.006304 -6.12086,14.230684 -0.18194,0.3119 -0.27301,0.59761 -0.27301,0.85753 0,0.44186 0.1558,0.81864 0.4677,1.13054 0.3379,0.3379 0.74102,0.50709 1.20887,0.50709 0.36389,0 0.70137,-0.15624 1.01328,-0.46815 1.01368,-0.88372 2.62525,-3.53455 4.83457,-7.95318 2.20931,-4.39264 3.70392,-8.252805 4.48367,-11.579774 0.77976,-3.352961 1.16993,-6.523861 1.16993,-9.512933 0,-3.352961 -0.41606,-6.679661 -1.2478,-9.980637 -0.83175,-3.300976 -2.3393,-7.095968 -4.52262,-11.384639 -2.18332,-4.28867 -3.75605,-6.874763 -4.71775,-7.75849 -0.31191,-0.285912 -0.64939,-0.428766 -1.01328,-0.428766 z m -39.29327,2.54305 c -2.10949,0 -3.8673,1.117181 -5.27363,3.352241 -1.40633,2.209945 -2.14725,5.160717 -2.22259,8.852332 h 1.35611 c 0.12556,-2.285285 0.71581,-3.967748 1.77056,-5.047607 1.07986,-1.104973 2.33524,-1.657323 3.76668,-1.657323 1.78302,0 3.27736,1.079736 4.48278,3.239456 1.20543,2.159719 2.23524,5.487196 3.08908,9.982426 l -16.12254,34.731274 h 7.11938 l 11.2253,-25.4645 3.23991,14.61559 c 1.15519,5.1984 2.46095,8.4006 3.91751,9.60603 1.45655,1.18031 2.97585,1.77055 4.55797,1.77055 1.9337,0 3.54082,-0.90408 4.82159,-2.71222 1.30588,-1.80814 1.95898,-4.6965 1.95898,-8.66436 h -1.35612 c -0.37669,3.96786 -1.97134,5.95213 -4.78399,5.95213 -1.65746,0 -3.08894,-0.82875 -4.29436,-2.48621 -1.18031,-1.68257 -2.31042,-4.997566 -3.39028,-9.94483 L 167.4011,80.769706 c -1.88348,-8.488201 -3.27706,-14.075901 -4.18113,-16.762995 -0.87895,-2.712207 -1.93372,-4.620691 -3.16426,-5.725664 -1.20543,-1.130085 -2.48622,-1.694916 -3.84232,-1.694916 z" />
      <g id="g3762" transform="translate(-0.61262124)">
        <text xml:space="preserve" style="font-style:normal;font-variant:normal;font-weight:normal;font-stretch:normal;font-size:18.0336px;line-height:1.25;font-family:'Bebas Neue';-inkscape-font-specification:'Bebas Neue';letter-spacing:0px;word-spacing:0px;opacity:0.6;fill:#000000;stroke-width:0.33813;filter:url(#filter3754)" x="126.39191" y="130.48044" id="text3752"><tspan sodipodi:role="line" id="tspan3750" x="126.39191" y="130.48044" style="font-style:normal;font-variant:normal;font-weight:normal;font-stretch:normal;font-family:'Bebas Neue';-inkscape-font-specification:'Bebas Neue';fill:#000000;stroke-width:0.33813">Web Workers</tspan></text>
        <text xml:space="preserve" style="font-style:normal;font-variant:normal;font-weight:normal;font-stretch:normal;font-size:18.0336px;line-height:1.25;font-family:'Bebas Neue';-inkscape-font-specification:'Bebas Neue';letter-spacing:0px;word-spacing:0px;fill:#ffffff;stroke-width:0.33813" x="125.86274" y="129.95128" id="text3742"><tspan sodipodi:role="line" id="tspan3740" x="125.86274" y="129.95128" style="font-style:normal;font-variant:normal;font-weight:normal;font-stretch:normal;font-family:'Bebas Neue';-inkscape-font-specification:'Bebas Neue';fill:#ffffff;stroke-width:0.33813">Web Workers</tspan></text>
      </g>
    </g>
  </g>
</svg>
